<?xml version="1.0" standalone="no"?>
<!DOCTYPE svg PUBLIC "-//W3C//DTD SVG 1.1//EN" "http://www.w3.org/Graphics/SVG/1.1/DTD/svg11.dtd">
<!--Generator: Xara Designer (www.xara.com), SVG filter version: 6.7.0.0-->
<svg fill="none" fill-rule="evenodd" stroke="black" stroke-width="0.501" stroke-linejoin="bevel" stroke-miterlimit="10" font-family="Times New Roman" font-size="16" style="font-variant-ligatures:none" xmlns:xlink="http://www.w3.org/1999/xlink" xmlns="http://www.w3.org/2000/svg" version="1.1" overflow="visible" width="144pt" height="144pt" viewBox="0 -144 144 144">
 <defs>
  <linearGradient id="LinearGradient" gradientUnits="userSpaceOnUse" x1="0" y1="0" x2="75" y2="-111" gradientTransform="translate(51 129)">
   <stop offset="0" stop-color="#33ffdc"/>
   <stop offset="1" stop-color="#3393ff"/>
  </linearGradient>
 </defs>
 <g id="Backgruond" transform="scale(1 -1)">
  <rect x="0.001" y="0.001" width="143.999" height="143.999" fill="#03001c" stroke-linecap="round" stroke="none" stroke-width="0.375" stroke-linejoin="miter"/>
 </g>
 <g id="New 2x" transform="scale(1 -1)">
  <path d="M 75.309,141 C 72.608,141 69.53,140.962 66.081,140.895 C 62.629,140.824 59.135,140.734 55.597,140.616 C 52.055,140.496 48.799,140.364 45.825,140.219 C 42.85,140.074 40.489,139.923 38.739,139.764 C 34.103,139.438 30.266,138.974 27.225,138.371 C 24.178,137.769 21.618,136.939 19.531,135.881 C 17.446,134.821 15.522,133.443 13.753,131.743 C 11.733,129.83 10.032,127.373 8.653,124.365 C 7.271,121.363 6.165,117.575 5.336,113 C 4.507,108.428 3.909,102.827 3.541,96.2 C 3.173,89.573 2.993,81.677 3,72.517 C 2.991,63.317 3.11,55.519 3.361,49.121 C 3.61,42.715 4.044,37.379 4.655,33.105 C 5.265,28.835 6.11,25.281 7.186,22.454 C 8.264,19.627 9.626,17.187 11.271,15.137 C 12.895,12.956 14.667,11.168 16.588,9.766 C 18.512,8.365 20.774,7.262 23.38,6.451 C 25.984,5.648 29.116,5.041 32.779,4.645 C 34.075,4.48 35.991,4.32 38.528,4.161 C 41.07,4.001 44.021,3.849 47.389,3.71 C 50.758,3.569 54.333,3.449 58.111,3.342 C 61.891,3.237 65.663,3.152 69.435,3.092 C 73.205,3.033 76.765,3 80.107,3 C 88.548,2.992 95.745,3.168 101.707,3.519 C 107.667,3.878 112.646,4.473 116.635,5.313 C 120.629,6.157 123.888,7.291 126.416,8.73 C 128.943,10.165 130.989,11.962 132.564,14.107 C 134.595,16.786 136.227,20.466 137.469,25.143 C 138.711,29.831 139.611,35.932 140.172,43.448 C 140.733,50.967 141.009,60.312 141,71.487 C 140.997,75.313 140.945,79.264 140.85,83.346 C 140.748,87.421 140.613,91.284 140.437,94.929 C 140.264,98.577 140.065,101.663 139.841,104.187 C 139.411,108.743 138.875,112.607 138.231,115.785 C 137.587,118.962 136.767,121.67 135.773,123.909 C 134.779,126.15 133.543,128.146 132.066,129.889 C 130.341,132.091 128.155,133.917 125.502,135.357 C 122.848,136.804 119.406,137.937 115.166,138.761 C 110.929,139.585 105.572,140.168 99.093,140.505 C 92.614,140.847 84.687,141.01 75.309,141 Z M 66.704,124.542 C 73.686,124.543 79.6,124.516 84.444,124.451 C 89.289,124.39 93.364,124.287 96.675,124.129 C 99.983,123.98 102.831,123.765 105.216,123.504 C 107.597,123.233 109.82,122.895 111.878,122.491 C 115.594,121.786 118.468,120.356 120.502,118.194 C 122.543,116.03 123.802,113.003 124.291,109.12 C 124.621,106.995 124.911,103.935 125.163,99.939 C 125.41,95.952 125.6,91.444 125.738,86.419 C 125.873,81.399 125.944,76.286 125.945,71.076 C 125.941,66.767 125.857,62.401 125.693,57.987 C 125.533,53.573 125.312,49.458 125.038,45.635 C 124.763,41.816 124.457,38.642 124.125,36.115 C 123.48,32.024 122.243,28.847 120.422,26.581 C 118.6,24.311 116.081,22.83 112.874,22.132 C 110.347,21.58 107.07,21.108 103.048,20.706 C 99.027,20.307 94.527,20.003 89.545,19.786 C 84.568,19.568 79.377,19.461 73.984,19.457 C 71.937,19.461 69.403,19.497 66.377,19.564 C 63.349,19.635 60.197,19.728 56.921,19.843 C 53.644,19.961 50.607,20.095 47.805,20.242 C 45.007,20.386 42.809,20.537 41.22,20.694 C 37.447,20.953 34.364,21.319 31.967,21.787 C 29.571,22.26 27.647,22.901 26.203,23.708 C 24.762,24.521 23.591,25.573 22.687,26.861 C 21.536,28.367 20.618,30.883 19.939,34.41 C 19.262,37.929 18.776,42.887 18.483,49.269 C 18.19,55.653 18.048,63.877 18.054,73.953 C 18.051,82.701 18.24,90.046 18.629,96.005 C 19.018,101.957 19.625,106.703 20.458,110.237 C 21.287,113.773 22.36,116.282 23.68,117.757 C 25.059,119.391 27.378,120.71 30.642,121.713 C 33.907,122.706 38.458,123.432 44.297,123.878 C 50.137,124.331 57.602,124.549 66.704,124.542 Z" fill-rule="nonzero" stroke-linejoin="round" stroke-linecap="round" stroke="none" stroke-width="0.886" marker-start="none" marker-end="none" fill="url(#LinearGradient)"/>
  <path d="M 70.799,115.891 L 85.466,98.828 L 70.275,80.495 L 86.664,80.495 L 95.345,92.467 L 96.018,92.467 L 104.474,80.495 L 121.462,80.495 L 105.747,99.502 L 119.965,115.891 L 102.978,115.891 L 95.868,106.461 L 95.27,106.461 L 88.609,115.891 L 70.799,115.891 Z" fill-rule="nonzero" stroke-linejoin="round" stroke-linecap="round" stroke="none" stroke-width="0.435" fill="#3393ff" marker-start="none" marker-end="none"/>
  <path d="M 50.454,80.544 C 50.476,82.431 50.509,83.949 50.548,85.099 C 50.589,86.248 50.654,87.139 50.74,87.773 C 50.829,88.405 50.96,88.892 51.129,89.233 C 51.301,89.573 51.527,89.878 51.811,90.146 C 52.156,90.484 52.782,90.767 53.684,90.996 C 54.584,91.225 55.872,91.407 57.551,91.543 C 59.228,91.68 61.404,91.776 64.079,91.835 C 66.755,91.892 70.038,91.921 73.935,91.921 C 76.757,91.921 79.101,91.914 80.964,91.894 C 82.828,91.878 84.331,91.842 85.48,91.79 C 86.627,91.74 87.538,91.665 88.214,91.568 C 88.89,91.47 89.453,91.346 89.902,91.19 C 91.082,90.812 91.903,90.16 92.368,89.233 C 92.829,88.306 93.051,86.873 93.031,84.929 C 93.04,83.689 92.957,82.699 92.781,81.958 C 92.608,81.219 92.298,80.648 91.857,80.242 C 91.416,79.839 90.8,79.523 90.006,79.292 C 89.533,79.128 89.073,78.987 88.628,78.872 C 88.18,78.755 87.57,78.643 86.795,78.537 C 86.019,78.429 84.903,78.308 83.446,78.173 C 81.991,78.035 80.019,77.865 77.53,77.662 C 75.041,77.459 71.859,77.202 67.986,76.891 C 64.67,76.643 61.949,76.439 59.82,76.279 C 57.691,76.117 56.004,75.987 54.755,75.89 C 53.509,75.791 52.552,75.713 51.885,75.652 C 51.217,75.591 50.689,75.537 50.301,75.488 C 49.912,75.441 49.51,75.387 49.097,75.327 C 46.713,74.985 44.674,74.59 42.983,74.139 C 41.291,73.69 39.85,73.147 38.653,72.511 C 37.461,71.876 36.419,71.11 35.532,70.212 C 34.545,69.252 33.738,68.171 33.107,66.965 C 32.479,65.762 31.99,64.243 31.644,62.41 C 31.296,60.575 31.058,58.234 30.924,55.388 C 30.789,52.54 30.724,48.994 30.731,44.746 C 30.728,43.662 30.732,42.745 30.742,41.994 C 30.752,41.242 30.779,40.481 30.823,39.706 C 30.868,38.932 30.94,37.967 31.042,36.815 L 114,36.815 L 114,52.782 L 50.454,52.782 C 50.481,54.079 50.555,55.081 50.673,55.785 C 50.795,56.49 51.008,57.051 51.312,57.467 C 51.618,57.88 52.062,58.301 52.645,58.73 C 52.898,58.936 53.201,59.116 53.552,59.268 C 53.903,59.421 54.462,59.564 55.228,59.693 C 55.993,59.824 57.124,59.96 58.62,60.1 C 60.116,60.241 62.135,60.404 64.675,60.585 C 67.215,60.77 70.434,60.988 74.334,61.247 C 78.234,61.503 82.97,61.812 88.545,62.176 C 94.399,62.477 99.042,63.229 102.473,64.432 C 105.901,65.634 108.355,67.351 109.826,69.584 C 110.554,70.676 111.14,71.915 111.584,73.298 C 112.03,74.678 112.353,76.332 112.554,78.26 C 112.756,80.186 112.854,82.513 112.851,85.242 C 112.861,89 112.656,92.103 112.233,94.547 C 111.812,96.992 111.111,98.973 110.132,100.49 C 109.153,102.009 107.834,103.255 106.176,104.231 C 105.292,104.77 104.342,105.222 103.329,105.587 C 102.315,105.951 101.034,106.245 99.482,106.468 C 97.931,106.688 95.905,106.859 93.407,106.973 C 90.905,107.088 87.729,107.163 83.871,107.202 C 80.015,107.239 75.276,107.259 69.656,107.256 C 63.947,107.261 59.091,107.172 55.088,106.992 C 51.087,106.809 47.755,106.502 45.092,106.07 C 42.429,105.639 40.251,105.051 38.56,104.308 C 36.867,103.566 35.475,102.635 34.383,101.518 C 33.526,100.677 32.814,99.714 32.245,98.625 C 31.677,97.537 31.227,96.205 30.9,94.632 C 30.571,93.062 30.339,91.131 30.201,88.842 C 30.064,86.553 29.996,83.787 30,80.544 L 50.454,80.544 Z" fill-rule="nonzero" stroke-linejoin="round" stroke-linecap="round" stroke="none" stroke-width="0.543" fill="#ffffff" marker-start="none" marker-end="none"/>
 </g>
</svg>
