<svg xmlns="http://www.w3.org/2000/svg" width="192" height="192" fill="none" fill-rule="evenodd" stroke="#000" stroke-linejoin="bevel" stroke-miterlimit="10" stroke-width=".501" font-family="Times New Roman" font-size="16" overflow="visible" style="font-variant-ligatures:none" viewBox="0 -144 144 144"><path fill="#03001c" stroke="none" d="M.001-.001H144V-144H.001z"/><g fill="#fff" fill-rule="nonzero" stroke="none" stroke-linecap="round" stroke-linejoin="round"><path d="M30-27c0-4.268.316-8.097.948-11.484.631-3.39 1.833-6.798 3.599-10.227 1.433-3.012 3.138-5.731 5.118-8.156 1.981-2.426 5.033-5.606 9.16-9.538l7.074-7.28c4.547-5.018 7.368-8.615 8.464-10.791 1.095-2.175 1.643-5.105 1.643-8.784 0-1.339-.065-2.427-.193-3.264a11.168 11.168 0 0 0-.693-2.509c-1.267-2.927-3.122-4.392-5.57-4.392-.589 0-1.472.189-2.655.564-1.18.379-2.173 1.504-2.974 3.386-.803 1.882-1.204 4.869-1.204 8.965v2.76H30.369l-.115-3.515c0-6.107.969-10.982 2.904-14.623 1.936-3.637 5.179-6.672 9.723-9.099 2.613-1.422 5.707-2.363 9.284-2.825 3.579-.459 6.588-.689 9.028-.689 8.337 0 14.757 1.714 19.264 5.145 4.503 3.432 7.3 8.45 8.397 15.063.672 4.014 1.01 7.237 1.01 9.664 0 3.347-.569 6.271-1.705 8.782-1.138 2.51-3.138 5.523-6 9.037L66.62-54.87l-1.769 1.631-3.033 3.388-1.389 1.633-.63.752-1.389 2.386h30.556V-27H30Z"/><path d="M93.864-65.712 84.62-81.835l-.04.06v-20.118l.04.069 9.244-13.955h21.181L97.969-91.925l18.302 26.213H93.864Z"/></g></svg>