<svg xmlns="http://www.w3.org/2000/svg" width="192" height="192" fill="none" fill-rule="evenodd" stroke="#000" stroke-linejoin="bevel" stroke-miterlimit="10" stroke-width=".501" font-family="Times New Roman" font-size="16" overflow="visible" style="font-variant-ligatures:none" viewBox="0 -144 144 144"><defs><linearGradient id="a" x1="0" x2="75" y1="0" y2="-111" gradientTransform="translate(51 129)" gradientUnits="userSpaceOnUse"><stop offset="0" stop-color="#33ffdc"/><stop offset="1" stop-color="#3393ff"/></linearGradient></defs><path fill="#03001c" stroke="none" d="M.001-.001H144V-144H.001z"/><g fill-rule="nonzero" stroke="none"><path fill="url(#a)" d="M75.309 141c-2.701 0-5.779-.038-9.228-.105a820 820 0 0 1-10.484-.279 663 663 0 0 1-9.772-.397q-4.462-.217-7.086-.455-6.953-.489-11.514-1.393c-3.047-.602-5.607-1.432-7.694-2.49q-3.126-1.589-5.778-4.138-3.03-2.868-5.1-7.378Q6.58 119.862 5.336 113q-1.243-6.859-1.795-16.8T3 72.517q-.014-13.8.361-23.396c.249-6.406.683-11.742 1.294-16.016.61-4.27 1.455-7.824 2.531-10.651q1.617-4.241 4.085-7.317 2.436-3.27 5.317-5.371 2.884-2.1 6.792-3.315c2.604-.803 5.736-1.41 9.399-1.806q1.944-.247 5.749-.484a415 415 0 0 1 8.861-.451q5.054-.21 10.722-.368c3.78-.105 7.552-.19 11.324-.25C73.205 3.033 76.765 3 80.107 3c8.441-.008 15.638.168 21.6.519 5.96.359 10.939.954 14.928 1.794 3.994.844 7.253 1.978 9.781 3.417 2.527 1.435 4.573 3.232 6.148 5.377 2.031 2.679 3.663 6.359 4.905 11.036q1.862 7.032 2.703 18.305.841 11.277.828 28.039a528 528 0 0 1-.15 11.859 501 501 0 0 1-.413 11.583q-.26 5.472-.596 9.258-.644 6.832-1.61 11.598t-2.458 8.124q-1.491 3.364-3.707 5.98c-1.725 2.202-3.911 4.028-6.564 5.468-2.654 1.447-6.096 2.58-10.336 3.404q-6.355 1.237-16.073 1.744-9.718.512-23.784.495m-8.605-16.458c6.982.001 12.896-.026 17.74-.091 4.845-.061 8.92-.164 12.231-.322 3.308-.149 6.156-.364 8.541-.625a84 84 0 0 0 6.662-1.013q5.573-1.056 8.624-4.297c2.041-2.164 3.3-5.191 3.789-9.074q.495-3.187.872-9.181.37-5.981.575-13.52.204-7.529.207-15.343a362 362 0 0 0-.252-13.089c-.16-4.414-.381-8.529-.655-12.352q-.414-5.729-.913-9.52c-.645-4.091-1.882-7.268-3.703-9.534-1.822-2.27-4.341-3.751-7.548-4.449-2.527-.552-5.804-1.024-9.826-1.426-4.021-.399-8.521-.703-13.503-.92a362 362 0 0 0-15.561-.329q-3.07.006-7.607.107-4.542.107-9.456.279-4.914.178-9.116.399c-2.798.144-4.996.295-6.585.452q-5.659.39-9.253 1.093-3.596.71-5.764 1.921-2.16 1.22-3.516 3.153-1.728 2.259-2.748 7.549c-.677 3.519-1.163 8.477-1.456 14.859-.293 6.384-.435 14.608-.429 24.684-.003 8.748.186 16.093.575 22.052q.581 8.93 1.829 14.232 1.243 5.306 3.222 7.52 2.067 2.451 6.962 3.956c3.265.993 7.816 1.719 13.655 2.165 5.84.453 13.305.671 22.407.664" transform="scale(1 -1)"/><path fill="#3393ff" d="m70.799-115.891 14.667 17.063-15.191 18.333h16.389l8.681-11.972h.673l8.456 11.972h16.988l-15.715-19.007 14.218-16.389h-16.987l-7.11 9.43h-.598l-6.661-9.43z"/><path fill="#fff" d="M50.454-80.544q.034-2.83.094-4.555.062-1.723.192-2.674.134-.948.389-1.46.257-.51.682-.913.519-.507 1.873-.85 1.35-.343 3.867-.547t6.528-.292q4.012-.086 9.856-.086 4.234-.002 7.029.027 2.794.025 4.516.104 1.72.076 2.734.222 1.014.145 1.688.378 1.77.567 2.466 1.957.692 1.39.663 4.304.014 1.86-.25 2.971-.261 1.108-.924 1.716-.66.604-1.851.95a18 18 0 0 1-1.378.42q-.671.176-1.833.335-1.164.162-3.349.364-2.183.207-5.916.511t-9.544.771l-8.166.612q-3.192.243-5.065.389-1.87.148-2.87.238a49 49 0 0 0-2.788.325q-3.577.512-6.114 1.188-2.536.674-4.33 1.628a12.8 12.8 0 0 0-3.121 2.299 12.7 12.7 0 0 0-2.425 3.247q-.943 1.805-1.463 4.555-.52 2.753-.72 7.022-.203 4.271-.193 10.642-.004 1.626.011 2.752.015 1.127.081 2.288.067 1.162.219 2.891H114v-15.967H50.454q.041-1.946.219-3.003.183-1.058.639-1.682.459-.62 1.333-1.263.38-.31.907-.538.527-.23 1.676-.425 1.148-.197 3.392-.407 2.245-.213 6.055-.485 3.81-.276 9.659-.662 5.85-.383 14.211-.929 8.781-.452 13.928-2.256c3.428-1.202 5.882-2.919 7.353-5.152q1.092-1.639 1.758-3.714.669-2.07.97-4.962.302-2.889.297-6.982.016-5.638-.618-9.305-.632-3.667-2.101-5.943-1.469-2.278-3.956-3.741a15.6 15.6 0 0 0-2.847-1.356q-1.52-.546-3.847-.881-2.327-.332-6.075-.505-3.751-.171-9.536-.229-5.784-.057-14.215-.054-8.564-.007-14.568.264-6.001.274-9.996.922-3.995.647-6.532 1.762-2.54 1.114-4.177 2.79a11.5 11.5 0 0 0-2.138 2.893q-.853 1.633-1.345 3.993-.493 2.356-.699 5.79-.206 3.433-.201 8.298z"/></g></svg>