<?xml version="1.0" standalone="no"?>
<!DOCTYPE svg PUBLIC "-//W3C//DTD SVG 1.1//EN" "http://www.w3.org/Graphics/SVG/1.1/DTD/svg11.dtd">
<!--Generator: Xara Designer (www.xara.com), SVG filter version: 6.7.0.0-->
<svg fill="none" fill-rule="evenodd" stroke="black" stroke-width="0.501" stroke-linejoin="bevel" stroke-miterlimit="10" font-family="Times New Roman" font-size="16" style="font-variant-ligatures:none" xmlns:xlink="http://www.w3.org/1999/xlink" xmlns="http://www.w3.org/2000/svg" version="1.1" overflow="visible" width="165pt" height="45pt" viewBox="0 -45 165 45">
 <defs>
  <linearGradient id="LinearGradient" gradientUnits="userSpaceOnUse" x1="0" y1="0" x2="27.517" y2="0" gradientTransform="translate(15.065 33.848) rotate(-64.4164)">
   <stop offset="0" stop-color="#33ffdc"/>
   <stop offset="1" stop-color="#3393ff"/>
  </linearGradient>
  <linearGradient id="LinearGradient_1" gradientUnits="userSpaceOnUse" x1="0" y1="0" x2="27.514" y2="0" gradientTransform="translate(43.547 34.088) rotate(-68.9848)">
   <stop offset="0" stop-color="#33ffdc"/>
   <stop offset="1" stop-color="#3393ff"/>
  </linearGradient>
  <linearGradient id="LinearGradient_2" gradientUnits="userSpaceOnUse" x1="0" y1="0" x2="31.853" y2="0" gradientTransform="translate(75.266 36.49) rotate(-61.6762)">
   <stop offset="0" stop-color="#33ffdc"/>
   <stop offset="1" stop-color="#3393ff"/>
  </linearGradient>
  <linearGradient id="LinearGradient_3" gradientUnits="userSpaceOnUse" x1="0" y1="0" x2="33.545" y2="0" gradientTransform="translate(108.93 34.543) rotate(-48.1538)">
   <stop offset="0" stop-color="#33ffdc"/>
   <stop offset="1" stop-color="#3393ff"/>
  </linearGradient>
  <linearGradient id="LinearGradient_4" gradientUnits="userSpaceOnUse" x1="0" y1="0" x2="16.609" y2="0" gradientTransform="translate(140.26 35.387) rotate(-45.022)">
   <stop offset="0" stop-color="#33ffdc"/>
   <stop offset="1" stop-color="#3393ff"/>
  </linearGradient>
 </defs>
 <g id="Background" transform="scale(1 -1)">
  <rect x="0.001" y="0.001" width="165" height="45" fill="#03001c" stroke="none" stroke-width="0.5" stroke-linejoin="miter"/>
 </g>
 <g id="Text" transform="scale(1 -1)">
  <text xml:space="preserve" transform="translate(-173.074 -57.746) scale(1 -1)" kerning="auto" font-family="MicrogrammaExtDBol" font-size="48" stroke="none" stroke-width="0.25" stroke-linecap="round" stroke-linejoin="round" fill="#000000"><tspan x="-83.37" y="0">feO2</tspan><tspan x="62.027" y="0">x</tspan></text>
  <g id="Group" fill="#ffffff" fill-rule="nonzero" stroke-linejoin="round" stroke-linecap="round" stroke="none" stroke-width="0.25">
   <path d="M -253.016,-128.853 L -248.648,-128.853 L -248.648,-145.458 L -240.153,-145.458 L -240.153,-128.853 L -231.801,-128.853 L -231.801,-122.76 L -240.153,-122.76 C -240.139,-122.08 -240.103,-121.537 -240.047,-121.133 C -239.99,-120.729 -239.901,-120.409 -239.78,-120.17 C -239.659,-119.931 -239.496,-119.72 -239.289,-119.537 C -238.941,-119.203 -238.403,-118.958 -237.675,-118.803 C -236.949,-118.649 -235.967,-118.573 -234.729,-118.575 C -234.565,-118.575 -234.409,-118.575 -234.262,-118.577 C -234.115,-118.578 -233.91,-118.582 -233.645,-118.589 C -233.381,-118.596 -232.991,-118.607 -232.473,-118.623 L -232.473,-113.013 C -233.071,-112.981 -233.593,-112.955 -234.04,-112.933 C -234.487,-112.912 -234.92,-112.896 -235.339,-112.885 C -235.759,-112.875 -236.228,-112.869 -236.745,-112.869 C -238.153,-112.867 -239.367,-112.901 -240.386,-112.971 C -241.405,-113.04 -242.28,-113.156 -243.009,-113.319 C -243.739,-113.482 -244.373,-113.703 -244.912,-113.982 C -245.451,-114.261 -245.945,-114.609 -246.393,-115.027 C -246.821,-115.413 -247.175,-115.811 -247.453,-116.22 C -247.732,-116.63 -247.952,-117.112 -248.114,-117.666 C -248.276,-118.221 -248.397,-118.907 -248.478,-119.726 C -248.559,-120.545 -248.615,-121.556 -248.648,-122.76 L -253.016,-122.76 L -253.016,-128.853 Z" marker-start="none" marker-end="none"/>
   <path d="M -208.185,-138.21 C -208.259,-138.71 -208.404,-139.118 -208.621,-139.434 C -208.838,-139.751 -209.185,-139.994 -209.661,-140.164 C -210.137,-140.336 -210.802,-140.453 -211.654,-140.517 C -212.508,-140.581 -213.607,-140.612 -214.953,-140.608 C -216.48,-140.61 -217.71,-140.534 -218.643,-140.38 C -219.576,-140.227 -220.266,-139.983 -220.713,-139.649 C -220.983,-139.45 -221.195,-139.208 -221.35,-138.926 C -221.504,-138.642 -221.613,-138.266 -221.676,-137.797 C -221.74,-137.328 -221.771,-136.714 -221.769,-135.954 L -199.593,-135.954 C -199.57,-135.457 -199.556,-134.989 -199.551,-134.552 C -199.546,-134.114 -199.544,-133.815 -199.545,-133.653 C -199.541,-131.888 -199.639,-130.393 -199.838,-129.17 C -200.037,-127.946 -200.359,-126.928 -200.803,-126.116 C -201.247,-125.303 -201.836,-124.63 -202.569,-124.098 C -203.074,-123.715 -203.651,-123.396 -204.298,-123.141 C -204.946,-122.886 -205.729,-122.685 -206.649,-122.537 C -207.568,-122.388 -208.687,-122.283 -210.008,-122.22 C -211.327,-122.157 -212.912,-122.127 -214.761,-122.129 C -216.587,-122.127 -218.164,-122.16 -219.491,-122.227 C -220.818,-122.295 -221.956,-122.406 -222.903,-122.561 C -223.85,-122.715 -224.666,-122.923 -225.352,-123.182 C -226.037,-123.441 -226.651,-123.762 -227.193,-124.146 C -227.79,-124.557 -228.288,-125.03 -228.686,-125.565 C -229.083,-126.1 -229.398,-126.747 -229.629,-127.506 C -229.86,-128.266 -230.025,-129.19 -230.122,-130.276 C -230.22,-131.364 -230.268,-132.665 -230.265,-134.18 C -230.27,-136.097 -230.185,-137.674 -230.009,-138.912 C -229.833,-140.15 -229.534,-141.159 -229.113,-141.938 C -228.692,-142.718 -228.116,-143.379 -227.385,-143.92 C -226.712,-144.43 -225.877,-144.84 -224.88,-145.15 C -223.884,-145.461 -222.636,-145.686 -221.138,-145.826 C -219.64,-145.966 -217.802,-146.035 -215.625,-146.032 C -212.606,-146.041 -210.1,-145.928 -208.107,-145.694 C -206.114,-145.46 -204.532,-145.055 -203.361,-144.478 C -202.19,-143.902 -201.328,-143.104 -200.775,-142.084 C -200.222,-141.064 -199.876,-139.772 -199.737,-138.21 L -208.185,-138.21 Z M -221.769,-131.304 C -221.756,-130.256 -221.547,-129.45 -221.142,-128.884 C -220.736,-128.318 -220.018,-127.928 -218.988,-127.715 C -217.959,-127.501 -216.502,-127.4 -214.617,-127.41 C -212.951,-127.408 -211.651,-127.498 -210.717,-127.681 C -209.783,-127.864 -209.131,-128.158 -208.761,-128.564 C -208.587,-128.731 -208.455,-128.914 -208.363,-129.114 C -208.271,-129.313 -208.205,-129.582 -208.167,-129.92 C -208.128,-130.259 -208.102,-130.72 -208.089,-131.304 L -221.769,-131.304 Z" marker-start="none" marker-end="none"/>
   <path d="M -174.736,-112.965 C -177.394,-112.963 -179.676,-112.979 -181.585,-113.015 C -183.494,-113.049 -185.106,-113.112 -186.423,-113.203 C -187.74,-113.293 -188.838,-113.421 -189.718,-113.587 C -190.599,-113.752 -191.339,-113.965 -191.94,-114.224 C -192.54,-114.484 -193.078,-114.8 -193.554,-115.173 C -194.164,-115.629 -194.672,-116.207 -195.081,-116.905 C -195.49,-117.602 -195.814,-118.487 -196.055,-119.559 C -196.295,-120.631 -196.466,-121.956 -196.57,-123.535 C -196.672,-125.115 -196.723,-127.015 -196.72,-129.235 C -196.724,-131.574 -196.676,-133.561 -196.576,-135.198 C -196.478,-136.834 -196.31,-138.198 -196.073,-139.29 C -195.836,-140.38 -195.512,-141.276 -195.102,-141.977 C -194.69,-142.678 -194.175,-143.262 -193.554,-143.73 C -193.079,-144.102 -192.542,-144.419 -191.944,-144.678 C -191.345,-144.938 -190.606,-145.15 -189.726,-145.316 C -188.846,-145.481 -187.745,-145.609 -186.423,-145.7 C -185.101,-145.79 -183.478,-145.852 -181.554,-145.888 C -179.631,-145.922 -177.326,-145.939 -174.64,-145.938 C -172.003,-145.939 -169.735,-145.922 -167.839,-145.888 C -165.942,-145.852 -164.339,-145.79 -163.029,-145.7 C -161.719,-145.609 -160.626,-145.481 -159.748,-145.316 C -158.871,-145.15 -158.132,-144.938 -157.533,-144.678 C -156.933,-144.419 -156.395,-144.102 -155.918,-143.73 C -155.309,-143.273 -154.801,-142.697 -154.392,-142 C -153.983,-141.304 -153.659,-140.414 -153.418,-139.332 C -153.178,-138.248 -153.006,-136.9 -152.903,-135.286 C -152.8,-133.671 -152.75,-131.718 -152.753,-129.427 C -152.75,-127.148 -152.8,-125.204 -152.903,-123.596 C -153.006,-121.989 -153.178,-120.645 -153.418,-119.565 C -153.659,-118.485 -153.983,-117.597 -154.392,-116.901 C -154.801,-116.205 -155.309,-115.629 -155.918,-115.173 C -156.395,-114.8 -156.931,-114.484 -157.529,-114.224 C -158.126,-113.965 -158.863,-113.752 -159.741,-113.587 C -160.617,-113.421 -161.713,-113.293 -163.029,-113.203 C -164.344,-113.112 -165.957,-113.049 -167.869,-113.015 C -169.781,-112.979 -172.07,-112.963 -174.736,-112.965 Z M -174.736,-121.269 C -172.941,-121.268 -171.431,-121.277 -170.207,-121.295 C -168.983,-121.314 -167.982,-121.352 -167.204,-121.409 C -166.426,-121.466 -165.808,-121.551 -165.351,-121.663 C -164.894,-121.775 -164.535,-121.925 -164.273,-122.111 C -164.011,-122.297 -163.785,-122.528 -163.594,-122.805 C -163.309,-123.16 -163.085,-123.634 -162.923,-124.225 C -162.762,-124.817 -162.649,-125.603 -162.584,-126.584 C -162.519,-127.564 -162.487,-128.816 -162.489,-130.339 C -162.487,-131.622 -162.529,-132.665 -162.617,-133.467 C -162.705,-134.269 -162.855,-134.903 -163.066,-135.368 C -163.277,-135.834 -163.565,-136.205 -163.93,-136.481 C -164.227,-136.72 -164.593,-136.914 -165.029,-137.066 C -165.465,-137.217 -166.062,-137.334 -166.818,-137.417 C -167.575,-137.499 -168.582,-137.556 -169.84,-137.588 C -171.099,-137.619 -172.699,-137.634 -174.64,-137.633 C -176.642,-137.635 -178.283,-137.622 -179.566,-137.594 C -180.848,-137.567 -181.87,-137.514 -182.631,-137.435 C -183.392,-137.356 -183.991,-137.24 -184.427,-137.086 C -184.863,-136.933 -185.235,-136.731 -185.542,-136.481 C -185.908,-136.192 -186.196,-135.817 -186.407,-135.356 C -186.618,-134.896 -186.767,-134.265 -186.856,-133.464 C -186.943,-132.662 -186.986,-131.604 -186.984,-130.291 C -186.987,-128.682 -186.947,-127.353 -186.864,-126.304 C -186.78,-125.254 -186.632,-124.42 -186.419,-123.801 C -186.206,-123.181 -185.908,-122.713 -185.524,-122.395 C -185.141,-122.077 -184.65,-121.846 -184.054,-121.701 C -183.731,-121.606 -183.368,-121.53 -182.963,-121.472 C -182.558,-121.415 -182.029,-121.371 -181.376,-121.341 C -180.724,-121.312 -179.864,-121.293 -178.799,-121.283 C -177.734,-121.273 -176.379,-121.269 -174.736,-121.269 Z" marker-start="none" marker-end="none"/>
   <path d="M -139.171,-125.344 C -139.161,-124.476 -139.146,-123.778 -139.128,-123.249 C -139.109,-122.72 -139.08,-122.31 -139.039,-122.019 C -138.999,-121.727 -138.939,-121.503 -138.861,-121.347 C -138.782,-121.19 -138.678,-121.05 -138.547,-120.927 C -138.388,-120.771 -138.101,-120.641 -137.686,-120.536 C -137.272,-120.431 -136.679,-120.347 -135.907,-120.285 C -135.136,-120.222 -134.135,-120.177 -132.904,-120.15 C -131.674,-120.123 -130.163,-120.11 -128.371,-120.11 C -127.072,-120.11 -125.994,-120.114 -125.138,-120.123 C -124.281,-120.131 -123.589,-120.147 -123.061,-120.171 C -122.534,-120.194 -122.114,-120.228 -121.803,-120.273 C -121.492,-120.317 -121.234,-120.375 -121.027,-120.447 C -120.484,-120.621 -120.106,-120.921 -119.893,-121.347 C -119.68,-121.773 -119.578,-122.433 -119.587,-123.327 C -119.584,-123.897 -119.622,-124.352 -119.702,-124.693 C -119.782,-125.033 -119.924,-125.296 -120.128,-125.482 C -120.33,-125.668 -120.614,-125.814 -120.979,-125.92 C -121.196,-125.995 -121.408,-126.06 -121.613,-126.113 C -121.819,-126.166 -122.1,-126.218 -122.456,-126.267 C -122.813,-126.316 -123.326,-126.372 -123.996,-126.434 C -124.666,-126.498 -125.573,-126.576 -126.718,-126.669 C -127.862,-126.763 -129.326,-126.881 -131.107,-127.024 C -132.632,-127.138 -133.884,-127.232 -134.863,-127.306 C -135.843,-127.38 -136.619,-127.44 -137.193,-127.484 C -137.766,-127.53 -138.207,-127.566 -138.513,-127.594 C -138.821,-127.622 -139.063,-127.647 -139.242,-127.669 C -139.421,-127.691 -139.605,-127.716 -139.795,-127.744 C -140.892,-127.9 -141.829,-128.082 -142.608,-128.29 C -143.386,-128.496 -144.049,-128.746 -144.599,-129.038 C -145.147,-129.33 -145.627,-129.683 -146.035,-130.096 C -146.489,-130.538 -146.86,-131.035 -147.15,-131.589 C -147.439,-132.143 -147.664,-132.842 -147.823,-133.684 C -147.983,-134.528 -148.093,-135.605 -148.155,-136.914 C -148.216,-138.224 -148.246,-139.856 -148.243,-141.809 C -148.245,-142.308 -148.243,-142.73 -148.238,-143.075 C -148.233,-143.42 -148.221,-143.771 -148.201,-144.128 C -148.18,-144.484 -148.147,-144.927 -148.099,-145.457 L -109.943,-145.457 L -109.943,-138.113 L -139.171,-138.113 C -139.159,-137.516 -139.125,-137.056 -139.07,-136.732 C -139.015,-136.407 -138.917,-136.15 -138.777,-135.958 C -138.636,-135.768 -138.432,-135.574 -138.163,-135.377 C -138.047,-135.282 -137.908,-135.2 -137.747,-135.13 C -137.585,-135.059 -137.328,-134.994 -136.976,-134.934 C -136.623,-134.874 -136.103,-134.812 -135.415,-134.747 C -134.727,-134.682 -133.799,-134.608 -132.631,-134.524 C -131.462,-134.439 -129.981,-134.338 -128.188,-134.22 C -126.394,-134.102 -124.215,-133.96 -121.651,-133.792 C -118.958,-133.654 -116.823,-133.308 -115.245,-132.754 C -113.668,-132.202 -112.54,-131.412 -111.862,-130.384 C -111.528,-129.882 -111.258,-129.313 -111.054,-128.677 C -110.849,-128.042 -110.7,-127.281 -110.608,-126.394 C -110.515,-125.508 -110.47,-124.438 -110.471,-123.183 C -110.466,-121.454 -110.561,-120.027 -110.756,-118.903 C -110.95,-117.778 -111.272,-116.867 -111.722,-116.169 C -112.172,-115.471 -112.779,-114.897 -113.542,-114.449 C -113.948,-114.201 -114.385,-113.993 -114.851,-113.825 C -115.317,-113.657 -115.906,-113.523 -116.62,-113.42 C -117.334,-113.318 -118.266,-113.24 -119.415,-113.187 C -120.565,-113.135 -122.026,-113.1 -123.8,-113.082 C -125.574,-113.065 -127.754,-113.056 -130.339,-113.057 C -132.965,-113.055 -135.199,-113.095 -137.039,-113.179 C -138.88,-113.263 -140.413,-113.404 -141.637,-113.603 C -142.863,-113.801 -143.864,-114.071 -144.643,-114.413 C -145.421,-114.755 -146.061,-115.183 -146.563,-115.696 C -146.957,-116.083 -147.285,-116.527 -147.547,-117.027 C -147.808,-117.528 -148.015,-118.14 -148.165,-118.863 C -148.317,-119.586 -148.423,-120.474 -148.487,-121.527 C -148.55,-122.58 -148.581,-123.852 -148.579,-125.344 L -139.171,-125.344 Z" marker-start="none" marker-end="none"/>
   <path d="M -107.405,-113.901 L -101.289,-121.015 L -107.623,-128.659 L -100.79,-128.659 L -97.171,-123.667 L -96.89,-123.667 L -93.365,-128.659 L -86.282,-128.659 L -92.834,-120.734 L -86.906,-113.901 L -93.989,-113.901 L -96.953,-117.833 L -97.202,-117.833 L -99.979,-113.901 L -107.405,-113.901 Z" marker-start="none" marker-end="none"/>
  </g>
  <g id="Group_1" stroke="none">
   <g id="Group_2" fill="#ffffff" fill-rule="nonzero" stroke-linejoin="round" stroke-linecap="round" stroke-width="0.216">
    <path d="M 10.398,23.018 L 14.176,23.018 L 14.176,8.648 L 21.523,8.648 L 21.523,23.018 L 28.747,23.018 L 28.747,28.292 L 21.523,28.292 C 21.536,28.88 21.567,29.35 21.615,29.7 C 21.665,30.049 21.742,30.326 21.846,30.533 C 21.951,30.74 22.092,30.923 22.27,31.081 C 22.571,31.37 23.037,31.582 23.667,31.716 C 24.294,31.849 25.144,31.915 26.215,31.913 C 26.357,31.913 26.492,31.913 26.619,31.912 C 26.745,31.911 26.922,31.907 27.152,31.901 C 27.38,31.895 27.718,31.886 28.166,31.872 L 28.166,36.727 C 27.649,36.755 27.197,36.777 26.81,36.796 C 26.424,36.815 26.049,36.828 25.687,36.838 C 25.323,36.847 24.918,36.852 24.471,36.852 C 23.253,36.853 22.204,36.824 21.322,36.763 C 20.441,36.704 19.684,36.603 19.054,36.462 C 18.422,36.321 17.873,36.13 17.408,35.888 C 16.941,35.647 16.514,35.346 16.127,34.984 C 15.757,34.65 15.45,34.306 15.21,33.952 C 14.968,33.597 14.778,33.18 14.639,32.7 C 14.498,32.22 14.394,31.626 14.324,30.917 C 14.253,30.209 14.205,29.334 14.176,28.292 L 10.398,28.292 L 10.398,23.018 Z" marker-start="none" marker-end="none"/>
    <path d="M 49.171,14.92 C 49.107,14.488 48.983,14.135 48.795,13.861 C 48.607,13.587 48.307,13.376 47.895,13.229 C 47.484,13.08 46.908,12.979 46.171,12.924 C 45.433,12.868 44.483,12.842 43.318,12.845 C 41.997,12.843 40.934,12.909 40.126,13.042 C 39.32,13.175 38.723,13.386 38.337,13.675 C 38.103,13.847 37.92,14.057 37.785,14.301 C 37.652,14.547 37.558,14.872 37.503,15.278 C 37.448,15.684 37.421,16.215 37.423,16.873 L 56.602,16.873 C 56.622,17.303 56.634,17.708 56.638,18.086 C 56.643,18.465 56.644,18.724 56.644,18.864 C 56.647,20.392 56.562,21.686 56.391,22.744 C 56.219,23.803 55.94,24.684 55.556,25.387 C 55.172,26.091 54.663,26.673 54.028,27.134 C 53.591,27.465 53.093,27.741 52.533,27.962 C 51.973,28.183 51.296,28.356 50.499,28.485 C 49.705,28.614 48.738,28.704 47.594,28.759 C 46.454,28.813 45.083,28.839 43.484,28.838 C 41.905,28.839 40.541,28.811 39.393,28.753 C 38.246,28.694 37.261,28.598 36.442,28.464 C 35.623,28.331 34.918,28.151 34.324,27.926 C 33.732,27.702 33.201,27.424 32.732,27.092 C 32.216,26.736 31.785,26.327 31.441,25.864 C 31.098,25.401 30.825,24.841 30.625,24.184 C 30.426,23.526 30.283,22.727 30.199,21.787 C 30.114,20.845 30.072,19.719 30.075,18.408 C 30.071,16.749 30.144,15.384 30.297,14.313 C 30.449,13.241 30.708,12.368 31.072,11.694 C 31.435,11.019 31.934,10.447 32.566,9.979 C 33.148,9.537 33.871,9.182 34.732,8.914 C 35.594,8.645 36.674,8.45 37.969,8.329 C 39.264,8.208 40.854,8.148 42.737,8.151 C 45.348,8.143 47.516,8.241 49.239,8.443 C 50.962,8.646 52.331,8.996 53.344,9.496 C 54.356,9.994 55.101,10.685 55.58,11.568 C 56.059,12.45 56.358,13.569 56.477,14.92 L 49.171,14.92 Z M 37.423,20.897 C 37.434,21.804 37.615,22.502 37.965,22.992 C 38.317,23.481 38.937,23.819 39.829,24.003 C 40.718,24.188 41.978,24.276 43.609,24.267 C 45.049,24.269 46.173,24.191 46.982,24.033 C 47.789,23.874 48.353,23.62 48.674,23.269 C 48.824,23.124 48.938,22.966 49.017,22.793 C 49.097,22.62 49.154,22.387 49.187,22.095 C 49.22,21.802 49.243,21.403 49.254,20.897 L 37.423,20.897 Z" marker-start="none" marker-end="none"/>
    <path d="M 78.1,36.769 C 75.802,36.77 73.828,36.757 72.177,36.725 C 70.526,36.696 69.132,36.641 67.993,36.563 C 66.854,36.485 65.904,36.374 65.143,36.23 C 64.381,36.088 63.741,35.903 63.221,35.679 C 62.702,35.454 62.237,35.181 61.825,34.858 C 61.298,34.463 60.859,33.963 60.505,33.359 C 60.151,32.756 59.871,31.99 59.662,31.062 C 59.454,30.134 59.307,28.987 59.217,27.621 C 59.129,26.253 59.085,24.609 59.087,22.688 C 59.084,20.664 59.126,18.944 59.212,17.527 C 59.297,16.111 59.441,14.931 59.646,13.986 C 59.852,13.042 60.132,12.267 60.487,11.66 C 60.843,11.054 61.288,10.548 61.825,10.143 C 62.237,9.821 62.7,9.547 63.218,9.323 C 63.736,9.098 64.375,8.914 65.136,8.771 C 65.897,8.628 66.85,8.517 67.993,8.438 C 69.136,8.36 70.54,8.307 72.204,8.275 C 73.867,8.246 75.86,8.231 78.184,8.232 C 80.464,8.231 82.426,8.246 84.065,8.275 C 85.706,8.307 87.093,8.36 88.225,8.438 C 89.358,8.517 90.304,8.628 91.063,8.771 C 91.822,8.914 92.46,9.098 92.979,9.323 C 93.498,9.547 93.963,9.821 94.375,10.143 C 94.903,10.539 95.341,11.037 95.695,11.64 C 96.049,12.243 96.33,13.013 96.538,13.949 C 96.745,14.888 96.894,16.054 96.983,17.451 C 97.072,18.849 97.115,20.539 97.113,22.522 C 97.115,24.494 97.072,26.176 96.983,27.568 C 96.894,28.959 96.745,30.122 96.538,31.057 C 96.33,31.991 96.049,32.76 95.695,33.362 C 95.341,33.965 94.903,34.463 94.375,34.858 C 93.963,35.181 93.5,35.454 92.982,35.679 C 92.466,35.903 91.829,36.088 91.069,36.23 C 90.312,36.374 89.363,36.485 88.225,36.563 C 87.088,36.641 85.693,36.696 84.039,36.725 C 82.386,36.757 80.406,36.77 78.1,36.769 Z M 78.1,29.582 C 79.653,29.583 80.959,29.575 82.017,29.559 C 83.076,29.543 83.942,29.51 84.615,29.461 C 85.287,29.411 85.822,29.338 86.218,29.241 C 86.612,29.144 86.923,29.014 87.15,28.853 C 87.376,28.692 87.572,28.492 87.736,28.253 C 87.983,27.945 88.177,27.535 88.317,27.024 C 88.456,26.511 88.554,25.831 88.61,24.982 C 88.667,24.134 88.694,23.05 88.693,21.732 C 88.694,20.622 88.658,19.719 88.582,19.025 C 88.506,18.331 88.376,17.782 88.193,17.38 C 88.011,16.977 87.761,16.656 87.446,16.417 C 87.189,16.21 86.873,16.042 86.495,15.91 C 86.119,15.78 85.602,15.679 84.948,15.607 C 84.294,15.536 83.422,15.486 82.335,15.459 C 81.246,15.432 79.862,15.419 78.184,15.42 C 76.452,15.418 75.033,15.429 73.923,15.454 C 72.815,15.477 71.93,15.523 71.273,15.591 C 70.614,15.659 70.096,15.76 69.719,15.893 C 69.342,16.026 69.02,16.2 68.754,16.417 C 68.438,16.667 68.189,16.991 68.007,17.39 C 67.824,17.789 67.695,18.335 67.618,19.028 C 67.543,19.722 67.506,20.638 67.507,21.774 C 67.505,23.166 67.539,24.317 67.611,25.224 C 67.684,26.133 67.812,26.855 67.996,27.391 C 68.181,27.927 68.438,28.332 68.77,28.607 C 69.101,28.883 69.526,29.083 70.041,29.208 C 70.321,29.29 70.635,29.356 70.985,29.406 C 71.336,29.456 71.793,29.494 72.358,29.52 C 72.921,29.545 73.665,29.561 74.586,29.57 C 75.508,29.578 76.68,29.582 78.1,29.582 Z" marker-start="none" marker-end="none"/>
    <path d="M 108.859,26.055 C 108.868,26.806 108.881,27.411 108.896,27.868 C 108.913,28.326 108.938,28.681 108.973,28.933 C 109.008,29.186 109.06,29.379 109.127,29.514 C 109.196,29.65 109.286,29.771 109.399,29.878 C 109.537,30.013 109.785,30.125 110.143,30.216 C 110.502,30.307 111.015,30.38 111.682,30.434 C 112.349,30.488 113.215,30.527 114.28,30.55 C 115.343,30.574 116.65,30.585 118.2,30.585 C 119.323,30.585 120.256,30.582 120.996,30.574 C 121.738,30.567 122.336,30.553 122.792,30.532 C 123.249,30.512 123.611,30.483 123.88,30.444 C 124.149,30.406 124.373,30.356 124.552,30.293 C 125.021,30.143 125.348,29.883 125.532,29.514 C 125.717,29.146 125.805,28.575 125.797,27.801 C 125.8,27.308 125.767,26.914 125.698,26.619 C 125.628,26.324 125.505,26.097 125.329,25.936 C 125.154,25.775 124.909,25.648 124.593,25.557 C 124.406,25.492 124.222,25.436 124.045,25.39 C 123.866,25.344 123.623,25.299 123.316,25.256 C 123.007,25.214 122.563,25.166 121.983,25.112 C 121.404,25.057 120.619,24.989 119.63,24.909 C 118.64,24.827 117.374,24.725 115.834,24.601 C 114.514,24.503 113.432,24.421 112.585,24.357 C 111.737,24.293 111.067,24.241 110.57,24.203 C 110.074,24.163 109.693,24.132 109.429,24.108 C 109.162,24.084 108.953,24.062 108.798,24.043 C 108.643,24.024 108.485,24.002 108.32,23.978 C 107.371,23.843 106.561,23.686 105.887,23.506 C 105.214,23.327 104.64,23.111 104.164,22.858 C 103.691,22.606 103.276,22.3 102.923,21.943 C 102.531,21.56 102.21,21.13 101.959,20.651 C 101.709,20.171 101.514,19.566 101.376,18.837 C 101.238,18.107 101.143,17.175 101.09,16.042 C 101.037,14.908 101.011,13.496 101.014,11.806 C 101.012,11.374 101.014,11.009 101.018,10.71 C 101.022,10.411 101.033,10.108 101.05,9.799 C 101.068,9.491 101.097,9.107 101.137,8.649 L 134.137,8.649 L 134.137,15.004 L 108.859,15.004 C 108.87,15.521 108.899,15.919 108.947,16.2 C 108.994,16.481 109.079,16.703 109.2,16.869 C 109.322,17.034 109.499,17.202 109.731,17.372 C 109.832,17.454 109.952,17.525 110.091,17.586 C 110.231,17.647 110.453,17.704 110.758,17.756 C 111.063,17.808 111.513,17.861 112.108,17.917 C 112.703,17.974 113.505,18.038 114.515,18.11 C 115.527,18.184 116.808,18.271 118.358,18.374 C 119.91,18.476 121.795,18.599 124.012,18.744 C 126.341,18.863 128.187,19.163 129.552,19.642 C 130.916,20.12 131.892,20.804 132.478,21.693 C 132.767,22.128 133,22.62 133.177,23.171 C 133.354,23.72 133.483,24.379 133.563,25.147 C 133.643,25.913 133.682,26.839 133.681,27.925 C 133.686,29.422 133.604,30.657 133.435,31.63 C 133.267,32.603 132.988,33.392 132.599,33.996 C 132.21,34.6 131.685,35.097 131.025,35.484 C 130.674,35.699 130.296,35.879 129.893,36.024 C 129.49,36.17 128.981,36.286 128.363,36.375 C 127.746,36.463 126.939,36.531 125.946,36.577 C 124.951,36.622 123.687,36.652 122.153,36.667 C 120.619,36.682 118.734,36.69 116.498,36.689 C 114.227,36.691 112.295,36.656 110.703,36.583 C 109.111,36.511 107.785,36.389 106.727,36.216 C 105.666,36.045 104.801,35.811 104.126,35.515 C 103.454,35.219 102.9,34.849 102.467,34.405 C 102.126,34.07 101.842,33.686 101.615,33.253 C 101.389,32.82 101.21,32.29 101.081,31.664 C 100.95,31.039 100.858,30.27 100.803,29.359 C 100.748,28.447 100.721,27.347 100.723,26.055 L 108.859,26.055 Z" marker-start="none" marker-end="none"/>
    <path d="M 136.333,35.959 L 141.622,29.802 L 136.144,23.186 L 142.054,23.186 L 145.184,27.507 L 145.427,27.507 L 148.476,23.186 L 154.602,23.186 L 148.934,30.045 L 154.062,35.959 L 147.936,35.959 L 145.373,32.556 L 145.157,32.556 L 142.756,35.959 L 136.333,35.959 Z" marker-start="none" marker-end="none"/>
   </g>
   <path d="M 13.527,8.647 L 13.527,22.368 L 10.398,22.368 C 10.041,22.368 9.75,22.659 9.75,23.018 L 9.75,28.291 C 9.75,28.648 10.041,28.94 10.398,28.94 L 13.548,28.94 L 13.552,29.065 C 13.582,29.794 13.623,30.432 13.677,30.98 C 13.75,31.714 13.86,32.35 14.016,32.881 C 14.171,33.415 14.389,33.896 14.673,34.315 C 14.947,34.718 15.289,35.102 15.687,35.461 C 16.115,35.859 16.59,36.195 17.109,36.464 C 17.635,36.736 18.238,36.943 18.912,37.094 C 19.583,37.245 20.375,37.348 21.277,37.41 C 22.179,37.471 23.244,37.502 24.471,37.5 C 24.923,37.5 25.333,37.494 25.702,37.485 C 26.071,37.476 26.45,37.462 26.841,37.444 C 27.229,37.425 27.681,37.402 28.2,37.374 C 28.543,37.355 28.814,37.071 28.814,36.726 L 28.814,31.871 C 28.814,31.504 28.51,31.211 28.145,31.222 C 27.698,31.236 27.361,31.245 27.134,31.251 C 26.906,31.257 26.734,31.261 26.612,31.262 C 26.487,31.263 26.357,31.264 26.214,31.264 C 25.162,31.264 24.364,31.199 23.8,31.08 C 23.231,30.959 22.899,30.783 22.71,30.602 C 22.581,30.488 22.491,30.371 22.424,30.239 C 22.364,30.119 22.3,29.919 22.256,29.609 C 22.235,29.452 22.217,29.263 22.203,29.041 L 22.199,28.94 L 28.747,28.94 C 29.104,28.94 29.396,28.648 29.396,28.291 L 29.396,23.018 C 29.396,22.659 29.104,22.368 28.747,22.368 L 22.173,22.368 L 22.173,8.647 C 22.173,8.288 21.881,7.998 21.523,7.998 L 14.176,7.998 C 13.818,7.998 13.527,8.288 13.527,8.647 Z M 20.874,9.296 L 20.874,23.018 C 20.874,23.375 21.165,23.667 21.523,23.667 L 28.099,23.667 L 28.099,27.642 L 21.523,27.642 C 21.159,27.642 20.867,27.94 20.874,28.304 C 20.886,28.904 20.919,29.402 20.972,29.788 C 21.027,30.177 21.118,30.53 21.266,30.825 C 21.409,31.106 21.601,31.354 21.831,31.557 C 22.243,31.954 22.842,32.203 23.532,32.35 C 24.223,32.497 25.125,32.563 26.215,32.562 C 26.355,32.562 26.495,32.562 26.625,32.559 C 26.755,32.558 26.938,32.555 27.168,32.549 L 27.516,32.538 L 27.516,36.109 L 27.405,36.114 C 27.179,36.126 26.971,36.137 26.778,36.146 C 26.397,36.165 26.027,36.178 25.67,36.188 C 25.313,36.197 24.913,36.202 24.47,36.202 C 23.262,36.203 22.227,36.174 21.366,36.114 C 20.506,36.056 19.783,35.959 19.195,35.828 C 18.605,35.696 18.112,35.522 17.706,35.31 C 17.292,35.097 16.913,34.83 16.565,34.505 C 16.223,34.196 15.953,33.89 15.746,33.586 C 15.548,33.295 15.385,32.942 15.26,32.517 C 15.135,32.087 15.036,31.536 14.968,30.852 C 14.9,30.164 14.852,29.306 14.824,28.273 C 14.814,27.921 14.527,27.642 14.176,27.642 L 11.047,27.642 L 11.047,23.667 L 14.176,23.667 C 14.534,23.667 14.825,23.375 14.825,23.018 L 14.825,9.296 L 20.874,9.296 Z" stroke-width="0.433" fill-rule="evenodd" marker-start="none" marker-end="none" fill="url(#LinearGradient)"/>
   <path d="M 37.908,7.682 C 36.586,7.806 35.459,8.006 34.539,8.293 C 33.622,8.578 32.828,8.964 32.177,9.458 C 31.473,9.98 30.911,10.623 30.501,11.384 C 30.088,12.148 29.813,13.101 29.655,14.22 C 29.496,15.334 29.422,16.733 29.426,18.407 C 29.423,19.73 29.466,20.876 29.552,21.844 C 29.64,22.813 29.788,23.659 30.004,24.372 C 30.222,25.087 30.525,25.717 30.92,26.25 C 31.31,26.775 31.795,27.233 32.361,27.623 C 32.874,27.988 33.456,28.291 34.095,28.532 C 34.738,28.775 35.488,28.965 36.338,29.103 C 37.187,29.243 38.197,29.341 39.36,29.4 C 40.522,29.458 41.898,29.488 43.484,29.486 C 45.088,29.488 46.47,29.461 47.625,29.406 C 48.783,29.351 49.776,29.258 50.602,29.124 C 51.43,28.991 52.154,28.807 52.77,28.564 C 53.38,28.324 53.932,28.02 54.414,27.654 C 55.122,27.14 55.696,26.483 56.125,25.697 C 56.553,24.912 56.85,23.956 57.03,22.847 C 57.21,21.743 57.296,20.411 57.293,18.864 C 57.294,18.721 57.291,18.456 57.287,18.078 C 57.282,17.691 57.27,17.278 57.25,16.842 C 57.234,16.496 56.948,16.223 56.602,16.223 L 38.085,16.223 L 38.089,16.012 C 38.102,15.762 38.121,15.546 38.146,15.364 C 38.195,15.003 38.273,14.761 38.355,14.611 C 38.441,14.452 38.562,14.314 38.722,14.195 C 38.988,13.996 39.465,13.807 40.231,13.682 C 40.989,13.556 42.013,13.492 43.318,13.493 C 44.475,13.49 45.407,13.516 46.122,13.569 C 46.836,13.623 47.344,13.719 47.675,13.839 C 48,13.955 48.17,14.096 48.259,14.227 C 48.376,14.397 48.475,14.649 48.53,15.014 C 48.577,15.332 48.85,15.569 49.171,15.569 L 56.477,15.569 C 56.858,15.569 57.158,15.241 57.124,14.862 C 56.998,13.451 56.683,12.24 56.15,11.257 C 55.6,10.242 54.748,9.462 53.629,8.912 C 52.525,8.367 51.076,8.005 49.314,7.798 C 47.555,7.591 45.36,7.492 42.736,7.5 C 40.842,7.497 39.231,7.558 37.908,7.682 Z M 49.162,9.086 C 50.848,9.285 52.135,9.623 53.057,10.076 C 53.964,10.524 54.603,11.125 55.009,11.876 C 55.326,12.463 55.565,13.186 55.713,14.057 L 55.741,14.27 L 49.678,14.27 L 49.639,14.112 C 49.561,13.889 49.458,13.681 49.329,13.492 C 49.042,13.074 48.612,12.795 48.114,12.617 C 47.622,12.439 46.98,12.333 46.219,12.276 C 45.458,12.218 44.49,12.191 43.317,12.194 C 41.981,12.193 40.877,12.259 40.022,12.4 C 39.174,12.54 38.457,12.773 37.95,13.152 C 37.644,13.378 37.397,13.659 37.215,13.988 C 37.032,14.329 36.921,14.739 36.86,15.19 C 36.8,15.636 36.772,16.201 36.775,16.873 C 36.776,17.231 37.066,17.521 37.423,17.521 L 55.972,17.521 L 55.99,18.092 C 55.995,18.472 55.995,18.725 55.995,18.862 C 55.998,20.37 55.915,21.626 55.75,22.638 C 55.586,23.648 55.326,24.454 54.986,25.075 C 54.647,25.696 54.202,26.204 53.642,26.611 C 53.251,26.908 52.805,27.155 52.295,27.357 C 51.791,27.555 51.161,27.72 50.397,27.842 C 49.633,27.966 48.692,28.055 47.563,28.109 C 46.437,28.163 45.077,28.189 43.483,28.187 C 41.911,28.189 40.559,28.161 39.426,28.103 C 38.294,28.045 37.335,27.951 36.546,27.822 C 35.758,27.694 35.097,27.523 34.553,27.318 C 34.007,27.111 33.526,26.858 33.103,26.559 C 32.637,26.237 32.259,25.876 31.962,25.475 C 31.669,25.082 31.427,24.593 31.245,23.994 C 31.062,23.391 30.926,22.638 30.845,21.727 C 30.762,20.812 30.721,19.706 30.724,18.406 C 30.72,16.763 30.792,15.432 30.939,14.403 C 31.084,13.379 31.325,12.586 31.641,12.001 C 31.96,11.412 32.394,10.912 32.954,10.497 C 33.467,10.109 34.118,9.784 34.925,9.533 C 35.728,9.281 36.76,9.092 38.029,8.974 C 39.297,8.855 40.865,8.796 42.737,8.799 C 45.335,8.791 47.475,8.888 49.162,9.086 Z M 36.775,20.904 C 36.787,21.88 36.981,22.728 37.438,23.368 C 37.922,24.045 38.724,24.437 39.696,24.638 C 40.652,24.837 41.966,24.924 43.609,24.915 C 45.064,24.917 46.237,24.838 47.106,24.669 C 47.747,24.542 48.318,24.348 48.758,24.045 L 49.148,23.706 L 49.396,23.42 C 49.477,23.308 49.548,23.189 49.606,23.063 C 49.726,22.805 49.794,22.496 49.831,22.167 C 49.868,21.846 49.891,21.424 49.902,20.91 C 49.911,20.547 49.618,20.247 49.254,20.247 L 37.423,20.247 C 37.062,20.247 36.77,20.542 36.775,20.904 Z M 48.542,22.021 C 48.513,22.277 48.468,22.433 48.428,22.519 C 48.385,22.613 48.32,22.706 48.224,22.799 L 48.193,22.83 C 48.014,23.027 47.617,23.245 46.856,23.394 C 46.109,23.541 45.034,23.618 43.607,23.616 C 41.989,23.625 40.783,23.538 39.96,23.366 C 39.149,23.198 38.71,22.915 38.493,22.613 C 38.371,22.442 38.268,22.22 38.194,21.937 L 38.122,21.545 L 48.58,21.545 L 48.542,22.021 Z" stroke-width="0.433" fill-rule="evenodd" marker-start="none" marker-end="none" fill="url(#LinearGradient_1)"/>
   <path d="M 72.192,7.626 C 70.521,7.657 69.106,7.71 67.948,7.789 C 66.79,7.869 65.81,7.982 65.016,8.131 C 64.223,8.281 63.535,8.476 62.959,8.726 C 62.396,8.97 61.883,9.272 61.43,9.627 C 60.826,10.083 60.324,10.654 59.927,11.331 C 59.527,12.014 59.228,12.86 59.013,13.846 C 58.798,14.836 58.65,16.052 58.564,17.486 C 58.476,18.921 58.434,20.655 58.438,22.687 C 58.435,24.616 58.48,26.276 58.569,27.662 C 58.661,29.049 58.811,30.231 59.029,31.203 C 59.248,32.174 59.547,33.008 59.945,33.686 C 60.339,34.358 60.835,34.926 61.431,35.372 C 61.883,35.728 62.398,36.028 62.963,36.274 C 63.541,36.522 64.229,36.718 65.023,36.867 C 65.817,37.017 66.794,37.13 67.948,37.209 C 69.101,37.289 70.507,37.343 72.165,37.373 C 73.821,37.404 75.8,37.419 78.1,37.417 C 80.407,37.419 82.392,37.404 84.051,37.373 C 85.711,37.343 87.118,37.289 88.269,37.209 C 89.422,37.13 90.398,37.017 91.189,36.866 C 91.98,36.718 92.666,36.522 93.24,36.273 C 93.804,36.028 94.316,35.727 94.769,35.372 C 95.364,34.926 95.86,34.362 96.254,33.689 C 96.652,33.012 96.952,32.174 97.171,31.197 C 97.388,30.218 97.539,29.019 97.63,27.608 C 97.72,26.198 97.764,24.501 97.762,22.52 C 97.764,20.529 97.72,18.824 97.63,17.409 C 97.54,15.992 97.388,14.79 97.171,13.807 C 96.953,12.828 96.652,11.988 96.254,11.311 C 95.86,10.638 95.364,10.073 94.769,9.626 C 94.316,9.272 93.802,8.97 93.236,8.726 C 92.661,8.476 91.972,8.281 91.183,8.131 C 90.39,7.982 89.417,7.869 88.269,7.789 C 87.122,7.71 85.724,7.657 84.077,7.626 C 82.432,7.596 80.465,7.581 78.183,7.581 C 75.857,7.581 73.86,7.596 72.192,7.626 Z M 84.053,8.923 C 85.687,8.954 87.062,9.008 88.18,9.085 C 89.298,9.163 90.217,9.271 90.942,9.408 C 91.67,9.545 92.259,9.716 92.721,9.917 C 93.193,10.121 93.61,10.367 93.981,10.657 C 94.44,11.002 94.823,11.434 95.136,11.967 C 95.444,12.495 95.705,13.196 95.904,14.089 C 96.102,14.983 96.247,16.114 96.336,17.491 C 96.424,18.87 96.466,20.546 96.464,22.521 C 96.466,24.484 96.424,26.152 96.336,27.526 C 96.248,28.896 96.102,30.023 95.904,30.914 C 95.706,31.806 95.444,32.505 95.136,33.033 C 94.823,33.565 94.44,33.997 93.981,34.341 C 93.61,34.632 93.193,34.878 92.723,35.083 C 92.264,35.282 91.676,35.454 90.948,35.592 C 90.224,35.728 89.303,35.837 88.18,35.914 C 87.058,35.991 85.674,36.046 84.027,36.075 C 82.379,36.107 80.403,36.12 78.1,36.118 C 75.803,36.12 73.834,36.107 72.188,36.075 C 70.544,36.046 69.161,35.991 68.037,35.914 C 66.912,35.837 65.99,35.728 65.263,35.591 C 64.532,35.454 63.94,35.282 63.478,35.082 C 63.006,34.878 62.59,34.631 62.219,34.341 C 61.761,33.997 61.377,33.565 61.063,33.029 C 60.754,32.5 60.494,31.803 60.295,30.918 C 60.097,30.035 59.952,28.923 59.864,27.578 C 59.776,26.228 59.733,24.6 59.736,22.686 C 59.732,20.67 59.773,18.965 59.858,17.565 C 59.942,16.168 60.084,15.023 60.28,14.122 C 60.476,13.222 60.736,12.517 61.045,11.987 C 61.361,11.451 61.75,11.011 62.22,10.656 C 62.589,10.367 63.005,10.121 63.476,9.917 C 63.936,9.716 64.525,9.545 65.256,9.408 C 65.983,9.271 66.908,9.163 68.037,9.085 C 69.166,9.008 70.558,8.954 72.215,8.923 C 73.873,8.893 75.862,8.88 78.184,8.88 C 80.461,8.88 82.419,8.893 84.053,8.923 Z M 73.909,14.804 C 72.793,14.827 71.889,14.873 71.205,14.945 C 70.525,15.015 69.949,15.122 69.503,15.28 C 69.068,15.433 68.677,15.641 68.349,15.909 C 67.948,16.226 67.637,16.635 67.417,17.119 C 67.192,17.606 67.053,18.229 66.973,18.956 C 66.894,19.684 66.857,20.626 66.859,21.772 C 66.856,23.173 66.89,24.343 66.964,25.275 C 67.038,26.209 67.173,26.992 67.382,27.6 C 67.593,28.215 67.907,28.735 68.356,29.106 C 68.567,29.282 68.803,29.429 69.059,29.549 L 69.885,29.836 L 70.894,30.048 C 71.273,30.101 71.752,30.14 72.328,30.167 C 72.903,30.192 73.656,30.209 74.579,30.217 C 75.504,30.226 76.679,30.23 78.1,30.23 C 79.655,30.231 80.964,30.222 82.027,30.207 C 83.092,30.19 83.971,30.157 84.662,30.106 C 85.351,30.056 85.926,29.979 86.371,29.87 C 86.814,29.762 87.209,29.605 87.525,29.381 C 87.671,29.277 87.805,29.162 87.928,29.035 L 88.247,28.647 L 88.268,28.618 L 88.653,27.99 C 88.769,27.745 88.865,27.478 88.943,27.193 C 89.099,26.621 89.199,25.893 89.257,25.024 C 89.314,24.156 89.342,23.056 89.341,21.731 C 89.342,20.611 89.305,19.681 89.226,18.953 C 89.147,18.226 89.006,17.601 88.784,17.111 C 88.562,16.621 88.249,16.209 87.844,15.904 C 87.527,15.647 87.14,15.447 86.708,15.296 C 86.264,15.142 85.694,15.035 85.018,14.96 C 84.338,14.887 83.447,14.836 82.35,14.809 C 81.254,14.782 79.864,14.768 78.184,14.769 C 76.449,14.767 75.025,14.779 73.909,14.804 Z M 82.318,16.106 C 83.397,16.134 84.249,16.182 84.877,16.251 C 85.51,16.32 85.972,16.415 86.282,16.522 C 86.604,16.635 86.851,16.77 87.047,16.927 C 87.274,17.1 87.459,17.33 87.602,17.647 C 87.745,17.962 87.864,18.434 87.936,19.094 C 88.009,19.755 88.044,20.631 88.043,21.731 C 88.044,23.042 88.018,24.11 87.962,24.938 C 87.908,25.766 87.813,26.399 87.691,26.851 C 87.567,27.305 87.406,27.627 87.231,27.845 L 87.202,27.883 C 87.078,28.063 86.936,28.208 86.773,28.323 C 86.636,28.421 86.41,28.524 86.063,28.609 C 85.717,28.694 85.223,28.764 84.567,28.813 C 83.911,28.86 83.06,28.893 82.007,28.91 C 80.953,28.925 79.65,28.932 78.1,28.932 C 76.68,28.932 75.51,28.929 74.592,28.92 C 73.674,28.911 72.938,28.895 72.386,28.87 C 71.833,28.845 71.397,28.807 71.076,28.762 C 70.751,28.716 70.468,28.656 70.224,28.584 L 70.194,28.576 C 69.752,28.468 69.423,28.305 69.184,28.106 C 68.968,27.927 68.767,27.636 68.609,27.179 C 68.45,26.716 68.329,26.054 68.258,25.172 C 68.188,24.288 68.154,23.157 68.157,21.773 C 68.155,20.646 68.191,19.757 68.263,19.097 C 68.337,18.438 68.454,17.969 68.595,17.66 C 68.74,17.345 68.928,17.106 69.16,16.922 C 69.363,16.757 69.616,16.616 69.934,16.504 C 70.242,16.395 70.702,16.302 71.338,16.235 C 71.971,16.17 72.835,16.124 73.937,16.101 C 75.04,16.077 76.454,16.066 78.183,16.068 C 79.86,16.067 81.237,16.079 82.318,16.106 Z" stroke-width="0.433" fill-rule="evenodd" marker-start="none" marker-end="none" fill="url(#LinearGradient_2)"/>
   <path d="M 100.492,8.589 C 100.45,9.053 100.42,9.443 100.402,9.76 C 100.384,10.079 100.373,10.392 100.369,10.7 C 100.364,11.003 100.362,11.372 100.364,11.805 C 100.361,13.5 100.388,14.923 100.441,16.071 C 100.495,17.22 100.593,18.186 100.739,18.957 C 100.885,19.727 101.096,20.397 101.383,20.95 C 101.666,21.491 102.029,21.976 102.466,22.402 C 102.863,22.805 103.332,23.149 103.86,23.43 C 104.389,23.712 105.012,23.944 105.72,24.131 C 106.425,24.32 107.262,24.482 108.227,24.619 C 108.395,24.644 108.558,24.666 108.718,24.686 C 108.882,24.706 109.1,24.729 109.369,24.753 C 109.638,24.778 110.023,24.809 110.519,24.849 C 111.017,24.887 111.687,24.939 112.536,25.003 C 113.382,25.067 114.466,25.148 115.784,25.247 C 117.323,25.371 118.588,25.473 119.576,25.554 C 120.566,25.635 121.346,25.702 121.923,25.757 C 122.499,25.81 122.933,25.858 123.227,25.899 C 123.522,25.939 123.738,25.98 123.882,26.017 C 124.04,26.058 124.206,26.109 124.381,26.169 L 124.412,26.179 C 124.667,26.253 124.811,26.34 124.891,26.413 C 124.948,26.466 125.018,26.565 125.065,26.766 C 125.118,26.99 125.15,27.326 125.147,27.801 C 125.155,28.552 125.065,28.996 124.952,29.223 C 124.861,29.405 124.692,29.566 124.346,29.676 C 124.212,29.723 124.033,29.765 123.788,29.8 C 123.549,29.835 123.211,29.863 122.763,29.882 C 122.316,29.903 121.727,29.917 120.989,29.924 C 120.252,29.932 119.321,29.935 118.2,29.935 C 116.653,29.935 115.35,29.924 114.294,29.9 C 113.234,29.877 112.384,29.838 111.734,29.785 C 111.079,29.733 110.608,29.663 110.303,29.585 C 109.987,29.506 109.873,29.431 109.847,29.406 C 109.785,29.349 109.741,29.289 109.707,29.222 C 109.686,29.18 109.647,29.065 109.616,28.842 C 109.585,28.623 109.561,28.295 109.545,27.844 C 109.529,27.393 109.516,26.794 109.507,26.047 C 109.504,25.691 109.214,25.405 108.859,25.405 L 100.723,25.405 C 100.365,25.405 100.074,25.695 100.074,26.053 C 100.071,27.353 100.099,28.467 100.154,29.397 C 100.211,30.326 100.305,31.129 100.445,31.796 C 100.584,32.463 100.78,33.052 101.041,33.553 C 101.297,34.044 101.621,34.483 102.007,34.862 C 102.504,35.371 103.13,35.785 103.866,36.108 C 104.607,36.434 105.531,36.68 106.623,36.856 C 107.714,37.033 109.067,37.157 110.673,37.231 C 112.278,37.303 114.221,37.339 116.498,37.337 C 118.735,37.338 120.622,37.329 122.159,37.315 C 123.698,37.299 124.969,37.269 125.975,37.224 C 126.979,37.177 127.808,37.109 128.455,37.016 C 129.098,36.924 129.653,36.799 130.113,36.634 C 130.555,36.474 130.972,36.275 131.358,36.04 C 132.095,35.607 132.696,35.041 133.144,34.346 C 133.595,33.647 133.895,32.769 134.073,31.739 C 134.251,30.716 134.334,29.439 134.33,27.924 C 134.33,26.825 134.291,25.874 134.207,25.078 C 134.124,24.279 133.989,23.574 133.794,22.971 C 133.602,22.369 133.343,21.821 133.019,21.333 C 132.332,20.291 131.216,19.537 129.766,19.029 C 128.319,18.52 126.403,18.215 124.049,18.095 C 121.836,17.949 119.952,17.827 118.401,17.724 C 116.85,17.622 115.571,17.535 114.562,17.461 C 113.553,17.39 112.757,17.325 112.168,17.27 C 111.576,17.214 111.147,17.162 110.866,17.114 C 110.572,17.064 110.414,17.018 110.35,16.99 C 110.253,16.948 110.187,16.906 110.142,16.869 L 110.114,16.847 C 109.916,16.701 109.793,16.578 109.723,16.483 C 109.68,16.425 109.622,16.307 109.586,16.09 L 109.537,15.653 L 134.137,15.653 C 134.495,15.653 134.787,15.361 134.787,15.003 L 134.787,8.648 C 134.787,8.289 134.495,7.999 134.137,7.999 L 101.137,7.999 C 100.803,7.999 100.522,8.255 100.492,8.589 Z M 133.489,9.297 L 133.489,14.354 L 108.859,14.354 C 108.497,14.354 108.203,14.653 108.211,15.016 C 108.221,15.544 108.252,15.98 108.307,16.307 C 108.366,16.652 108.478,16.979 108.677,17.253 C 108.763,17.37 108.864,17.481 108.977,17.588 L 109.347,17.891 L 109.831,18.18 C 110.046,18.274 110.334,18.341 110.649,18.394 C 110.978,18.451 111.448,18.506 112.046,18.562 C 112.649,18.619 113.457,18.683 114.469,18.757 C 115.482,18.831 116.764,18.918 118.315,19.02 C 119.867,19.122 121.752,19.245 123.974,19.39 C 126.279,19.509 128.055,19.803 129.337,20.253 C 130.615,20.701 131.451,21.314 131.937,22.051 C 132.19,22.432 132.398,22.869 132.559,23.368 C 132.718,23.864 132.84,24.476 132.917,25.212 C 132.994,25.95 133.032,26.851 133.032,27.925 C 133.036,29.402 132.955,30.595 132.794,31.518 C 132.637,32.435 132.381,33.134 132.054,33.643 C 131.723,34.156 131.274,34.583 130.692,34.926 C 130.375,35.12 130.036,35.281 129.672,35.412 C 129.326,35.538 128.863,35.645 128.27,35.731 C 127.683,35.815 126.899,35.882 125.916,35.927 C 124.932,35.972 123.676,36.002 122.146,36.017 C 120.614,36.032 118.732,36.039 116.497,36.038 C 114.232,36.04 112.31,36.006 110.733,35.933 C 109.154,35.862 107.855,35.741 106.83,35.574 C 105.801,35.408 104.994,35.187 104.387,34.92 C 103.777,34.652 103.297,34.325 102.924,33.946 C 102.628,33.655 102.386,33.325 102.19,32.951 C 101.999,32.584 101.837,32.114 101.716,31.53 C 101.593,30.946 101.503,30.211 101.449,29.318 C 101.422,28.871 101.402,28.376 101.388,27.832 L 101.376,26.703 L 108.221,26.703 L 108.227,27.084 C 108.233,27.389 108.24,27.657 108.248,27.89 C 108.265,28.355 108.291,28.736 108.331,29.021 C 108.369,29.303 108.434,29.577 108.548,29.804 C 108.65,30.009 108.786,30.191 108.971,30.365 C 109.243,30.612 109.614,30.75 109.984,30.845 C 110.394,30.949 110.95,31.025 111.629,31.079 C 112.314,31.135 113.194,31.174 114.265,31.198 C 115.336,31.221 116.647,31.233 118.2,31.233 C 119.324,31.233 120.26,31.229 121.002,31.221 C 121.747,31.214 122.354,31.2 122.821,31.18 C 123.286,31.159 123.673,31.129 123.972,31.085 C 124.265,31.044 124.533,30.986 124.757,30.908 C 125.35,30.717 125.835,30.359 126.112,29.804 C 126.367,29.293 126.453,28.594 126.445,27.798 C 126.448,27.287 126.414,26.835 126.329,26.469 C 126.238,26.081 126.062,25.725 125.767,25.456 C 125.632,25.332 125.477,25.228 125.31,25.141 L 124.776,24.933 L 124.206,24.76 C 123.994,24.705 123.724,24.656 123.404,24.612 C 123.081,24.568 122.626,24.518 122.044,24.465 C 121.462,24.408 120.672,24.341 119.682,24.26 C 118.692,24.179 117.426,24.077 115.883,23.953 C 114.563,23.854 113.48,23.773 112.634,23.709 C 111.787,23.645 111.116,23.593 110.62,23.555 C 110.125,23.515 109.748,23.484 109.487,23.461 C 109.223,23.436 109.022,23.416 108.876,23.397 C 108.727,23.379 108.573,23.359 108.413,23.334 C 107.479,23.202 106.696,23.049 106.053,22.877 C 105.416,22.708 104.891,22.508 104.469,22.284 C 104.05,22.059 103.688,21.793 103.38,21.481 C 103.031,21.141 102.751,20.767 102.533,20.348 C 102.321,19.943 102.143,19.403 102.013,18.715 C 101.883,18.026 101.79,17.127 101.737,16.01 C 101.684,14.891 101.659,13.489 101.662,11.804 C 101.66,11.373 101.662,11.012 101.665,10.718 C 101.67,10.428 101.68,10.134 101.696,9.835 C 101.705,9.685 101.716,9.516 101.731,9.328 L 101.734,9.297 L 133.489,9.297 Z" stroke-width="0.433" fill-rule="evenodd" marker-start="none" marker-end="none" fill="url(#LinearGradient_3)"/>
   <path d="M 135.644,23.599 L 140.773,29.793 L 135.841,35.535 C 135.48,35.954 135.779,36.607 136.333,36.607 L 142.756,36.607 C 142.965,36.607 143.163,36.504 143.284,36.332 L 145.277,33.507 L 147.417,36.348 C 147.539,36.511 147.732,36.607 147.936,36.607 L 154.062,36.607 C 154.617,36.607 154.914,35.951 154.552,35.532 L 149.784,30.034 L 155.101,23.598 C 155.45,23.177 155.148,22.536 154.602,22.536 L 148.476,22.536 C 148.265,22.536 148.066,22.638 147.945,22.811 L 145.3,26.559 L 142.579,22.804 C 142.457,22.636 142.262,22.536 142.054,22.536 L 136.144,22.536 C 135.596,22.536 135.295,23.177 135.644,23.599 Z M 141.722,23.835 L 144.658,27.887 C 144.78,28.054 144.975,28.155 145.184,28.155 L 145.427,28.155 C 145.637,28.155 145.835,28.052 145.956,27.88 L 148.811,23.835 L 153.222,23.835 L 148.434,29.63 C 148.233,29.874 148.237,30.229 148.445,30.469 L 152.64,35.309 L 148.259,35.309 L 145.889,32.164 C 145.767,32.001 145.576,31.906 145.373,31.906 L 145.157,31.906 C 144.946,31.906 144.748,32.008 144.627,32.18 L 142.419,35.309 L 137.745,35.309 L 142.114,30.223 C 142.32,29.984 142.323,29.63 142.121,29.386 L 137.524,23.835 L 141.722,23.835 Z" stroke-width="0.433" fill-rule="evenodd" marker-start="none" marker-end="none" fill="url(#LinearGradient_4)"/>
  </g>
 </g>
</svg>
