<svg xmlns="http://www.w3.org/2000/svg" width="220" height="60" fill="none" fill-rule="evenodd" stroke="#000" stroke-linejoin="bevel" stroke-miterlimit="10" stroke-width=".501" font-family="Times New Roman" font-size="16" overflow="visible" style="font-variant-ligatures:none" viewBox="0 -45 165 45"><defs><linearGradient id="a" x1="0" x2="27.517" y1="0" y2="0" gradientTransform="rotate(-64.416 34.399 4.966)" gradientUnits="userSpaceOnUse"><stop offset="0" stop-color="#33ffdc"/><stop offset="1" stop-color="#3393ff"/></linearGradient><linearGradient id="b" x1="0" x2="27.514" y1="0" y2="0" gradientTransform="rotate(-68.985 46.58 -14.646)" gradientUnits="userSpaceOnUse"><stop offset="0" stop-color="#33ffdc"/><stop offset="1" stop-color="#3393ff"/></linearGradient><linearGradient id="c" x1="0" x2="31.853" y1="0" y2="0" gradientTransform="rotate(-61.676 68.193 -44.79)" gradientUnits="userSpaceOnUse"><stop offset="0" stop-color="#33ffdc"/><stop offset="1" stop-color="#3393ff"/></linearGradient><linearGradient id="d" x1="0" x2="33.545" y1="0" y2="0" gradientTransform="rotate(-48.154 93.118 -104.618)" gradientUnits="userSpaceOnUse"><stop offset="0" stop-color="#33ffdc"/><stop offset="1" stop-color="#3393ff"/></linearGradient><linearGradient id="e" x1="0" x2="16.609" y1="0" y2="0" gradientTransform="rotate(-45.022 112.823 -151.523)" gradientUnits="userSpaceOnUse"><stop offset="0" stop-color="#33ffdc"/><stop offset="1" stop-color="#3393ff"/></linearGradient></defs><path fill="#03001c" stroke="none" d="M.001-.001h165v-45h-165z"/><g stroke="none"><text xml:space="preserve" fill="#000" stroke-linecap="round" stroke-linejoin="round" stroke-width=".25" font-family="MicrogrammaExtDBol" font-size="48" transform="translate(-173.074 57.746)"><tspan x="-83.37" y="0">feO2</tspan><tspan x="62.027" y="0">x</tspan></text><g fill="#fff" fill-rule="nonzero" stroke-linecap="round" stroke-linejoin="round" stroke-width=".25"><path d="M-253.016 128.853h4.368v16.605h8.495v-16.605h8.352v-6.093h-8.352q.022-1.02.106-1.627.085-.605.267-.963a2.1 2.1 0 0 1 .491-.633q.522-.501 1.614-.734 1.089-.231 2.946-.228.246 0 .467.002.22.002.617.012l1.172.034v-5.61q-.897-.047-1.567-.08-.67-.032-1.299-.048-.63-.016-1.406-.016a53 53 0 0 0-3.641.102q-1.529.103-2.623.348t-1.903.663a6.6 6.6 0 0 0-1.481 1.045 6.7 6.7 0 0 0-1.06 1.193q-.418.615-.661 1.446-.243.832-.364 2.06t-.17 3.034h-4.368zM-208.185 138.21q-.11.75-.436 1.224-.326.475-1.04.73-.714.257-1.993.353t-3.299.091q-2.29.003-3.69-.228-1.4-.23-2.07-.731a2.2 2.2 0 0 1-.637-.723q-.231-.426-.326-1.129-.096-.703-.093-1.843h22.176q.035-.746.042-1.402t.006-.899q.006-2.648-.293-4.483-.299-1.836-.965-3.054a6 6 0 0 0-1.766-2.018 7.2 7.2 0 0 0-1.729-.957q-.971-.382-2.351-.604-1.378-.223-3.359-.317a100 100 0 0 0-4.753-.091 94 94 0 0 0-4.73.098q-1.991.102-3.412.334t-2.449.621a8.2 8.2 0 0 0-1.841.964 6.3 6.3 0 0 0-1.493 1.419q-.596.802-.943 1.941t-.493 2.77-.143 3.904q-.008 2.875.256 4.732t.896 3.026q.632 1.17 1.728 1.982 1.01.765 2.505 1.23 1.495.466 3.742.676t5.513.206q4.529.013 7.518-.338 2.99-.35 4.746-1.216 1.756-.864 2.586-2.394t1.038-3.874zm-13.584-6.906q.02-1.571.627-2.42.609-.85 2.154-1.169 1.543-.32 4.371-.305 2.499-.003 3.9.271t1.956.883q.26.25.398.55.139.299.196.806.059.508.078 1.384zM-174.736 112.965q-3.986-.004-6.849.05a97 97 0 0 0-4.838.188q-1.975.135-3.295.384-1.321.248-2.222.637-.9.39-1.614.949a5.8 5.8 0 0 0-1.527 1.732q-.613 1.046-.974 2.654-.36 1.608-.515 3.976-.154 2.37-.15 5.7-.006 3.508.144 5.963.147 2.454.503 4.092.356 1.635.971 2.687a5.9 5.9 0 0 0 1.548 1.753 7.3 7.3 0 0 0 1.61.948q.898.39 2.218.638 1.32.247 3.303.384 1.983.135 4.869.188 2.885.051 6.914.05 3.956.001 6.801-.05 2.845-.054 4.81-.188 1.964-.137 3.281-.384 1.316-.248 2.215-.638a7.4 7.4 0 0 0 1.615-.948 5.8 5.8 0 0 0 1.526-1.73q.613-1.044.974-2.668.36-1.625.515-4.046.155-2.423.15-5.859.005-3.419-.15-5.831-.155-2.41-.515-4.031-.361-1.62-.974-2.664a5.8 5.8 0 0 0-1.526-1.728 7.4 7.4 0 0 0-1.611-.949q-.895-.389-2.212-.637-1.314-.249-3.288-.384a97 97 0 0 0-4.84-.188 359 359 0 0 0-6.867-.05m0 8.304q2.693-.001 4.529.026 1.836.029 3.003.114t1.853.254q.685.168 1.078.448.393.279.679.694.428.533.671 1.42.242.888.339 2.359.098 1.47.095 3.755.004 1.925-.128 3.128t-.449 1.901a2.8 2.8 0 0 1-.864 1.113 3.7 3.7 0 0 1-1.099.585q-.654.227-1.789.351t-3.022.171q-1.888.047-4.8.045a224 224 0 0 1-4.926-.039q-1.923-.04-3.065-.159-1.142-.118-1.796-.349a3.7 3.7 0 0 1-1.115-.605 3 3 0 0 1-.865-1.125q-.316-.69-.449-1.892-.13-1.203-.128-3.173-.004-2.414.12-3.987.126-1.575.445-2.503.32-.93.895-1.406.575-.477 1.47-.694a8 8 0 0 1 1.091-.229q.607-.086 1.587-.131a77 77 0 0 1 2.577-.058q1.598-.015 4.063-.014M-139.171 125.344q.015-1.302.043-2.095a13 13 0 0 1 .089-1.23q.06-.438.178-.672a1.5 1.5 0 0 1 .314-.42q.239-.234.861-.391.621-.158 1.779-.251a53 53 0 0 1 3.003-.135q1.845-.04 4.533-.04 1.949 0 3.233.013t2.077.048q.791.034 1.258.102.466.066.776.174.814.261 1.134.9t.306 1.98q.005.855-.115 1.366-.12.51-.426.789-.303.279-.851.438-.326.113-.634.193a8 8 0 0 1-.843.154q-.535.074-1.54.167-1.005.096-2.722.235-1.717.14-4.389.355l-3.756.282-2.33.178q-.86.069-1.32.11-.461.042-.729.075t-.553.075q-1.645.234-2.813.546-1.166.31-1.991.748a5.9 5.9 0 0 0-1.436 1.058 5.9 5.9 0 0 0-1.115 1.493q-.434.832-.673 2.095-.24 1.266-.332 3.23-.092 1.965-.088 4.895-.003.749.005 1.266.007.518.037 1.053t.102 1.329h38.156v-7.344h-29.228q.018-.895.101-1.381.083-.487.293-.774.211-.285.614-.581a1.8 1.8 0 0 1 .416-.247q.243-.106.771-.196.53-.09 1.561-.187 1.032-.097 2.784-.223 1.754-.127 4.443-.304l6.537-.428q4.04-.207 6.406-1.038 2.366-.828 3.383-2.37a6.8 6.8 0 0 0 .808-1.707q.308-.953.446-2.283.139-1.329.137-3.211.007-2.594-.285-4.28-.291-1.687-.966-2.734a5.34 5.34 0 0 0-1.82-1.72 7 7 0 0 0-1.309-.624q-.698-.251-1.769-.405-1.071-.153-2.795-.233-1.725-.078-4.385-.105a670 670 0 0 0-6.539-.025q-3.94-.004-6.7.122-2.762.126-4.598.424-1.838.297-3.006.81t-1.92 1.283a5.3 5.3 0 0 0-.984 1.331q-.392.752-.618 1.836-.227 1.085-.322 2.664a64 64 0 0 0-.092 3.817zM-107.405 113.901l6.116 7.114-6.334 7.644h6.833l3.619-4.992h.281l3.525 4.992h7.083l-6.552-7.925 5.928-6.833h-7.083l-2.964 3.932h-.249l-2.777-3.932z"/></g><g fill="#fff" fill-rule="nonzero" stroke-linecap="round" stroke-linejoin="round" stroke-width=".216"><path d="M10.398-23.018h3.778v14.37h7.347v-14.37h7.224v-5.274h-7.224a13 13 0 0 1 .092-1.408q.075-.523.231-.833a1.8 1.8 0 0 1 .424-.548q.452-.434 1.397-.635.941-.2 2.548-.197l.404.001q.189.002.533.011.342.008 1.014.029v-4.855q-.776-.041-1.356-.069a49.39 49.39 0 0 0-2.339-.056 46 46 0 0 0-3.149.089q-1.322.089-2.268.301a6.8 6.8 0 0 0-1.646.574 5.7 5.7 0 0 0-1.281.904q-.556.501-.917 1.032a4.4 4.4 0 0 0-.571 1.252q-.21.72-.315 1.783a38 38 0 0 0-.148 2.625h-3.778zM49.171-14.92q-.095.648-.376 1.059t-.9.632q-.618.223-1.724.305-1.106.084-2.853.079-1.98.003-3.192-.197-1.21-.2-1.789-.633a1.9 1.9 0 0 1-.552-.626q-.2-.369-.282-.977a12 12 0 0 1-.08-1.595h19.179q.03-.646.036-1.213.007-.568.006-.778.004-2.292-.253-3.88-.258-1.589-.835-2.643a5.2 5.2 0 0 0-1.528-1.747 6.3 6.3 0 0 0-1.495-.828q-.84-.33-2.034-.523-1.19-.192-2.905-.274a88 88 0 0 0-4.11-.079 82 82 0 0 0-4.091.085q-1.721.088-2.951.289-1.228.2-2.118.538a7 7 0 0 0-1.592.834 5.4 5.4 0 0 0-1.291 1.228q-.515.695-.816 1.68-.3.987-.426 2.397a37 37 0 0 0-.124 3.379q-.007 2.489.222 4.095.229 1.608.775 2.619a5.15 5.15 0 0 0 1.494 1.715q.874.663 2.166 1.065 1.294.403 3.237.585t4.768.178q3.917.011 6.502-.292 2.585-.304 4.105-1.053 1.518-.747 2.236-2.072.718-1.324.897-3.352zm-11.748-5.977q.017-1.36.542-2.095.527-.734 1.864-1.011 1.334-.277 3.78-.264 2.16-.003 3.373.234 1.21.238 1.692.764.225.217.343.476.12.26.17.698.05.44.067 1.198zM78.1-36.769a307 307 0 0 0-5.923.044 84 84 0 0 0-4.184.162q-1.708.117-2.85.333-1.142.214-1.922.551a6.3 6.3 0 0 0-1.396.821 5 5 0 0 0-1.32 1.499q-.53.905-.843 2.297-.311 1.392-.445 3.441a77 77 0 0 0-.13 4.933q-.004 3.036.125 5.161.127 2.124.434 3.541.309 1.416.841 2.326a5.1 5.1 0 0 0 1.338 1.517q.617.483 1.393.82.777.338 1.918.552t2.857.333q1.715.116 4.211.163 2.494.044 5.98.043 3.421.001 5.881-.043a87 87 0 0 0 4.16-.163q1.7-.118 2.838-.333t1.916-.552a6.3 6.3 0 0 0 1.396-.82 5 5 0 0 0 1.32-1.497q.531-.905.843-2.309.311-1.407.445-3.502.133-2.097.13-5.071.003-2.958-.13-5.046-.134-2.087-.445-3.489-.312-1.402-.843-2.305a5 5 0 0 0-1.32-1.496 6.3 6.3 0 0 0-1.393-.821q-.774-.337-1.913-.551-1.136-.216-2.844-.333a84 84 0 0 0-4.186-.162 309 309 0 0 0-5.939-.044m0 7.187q2.33-.001 3.917.023 1.588.024 2.598.098 1.008.075 1.603.22.591.146.932.388.34.242.586.6.37.462.581 1.229.209.769.293 2.042.085 1.272.083 3.25.002 1.665-.111 2.707-.114 1.041-.389 1.645a2.44 2.44 0 0 1-.747.963 3.2 3.2 0 0 1-.951.507q-.565.195-1.547.303a33 33 0 0 1-2.613.148q-1.634.04-4.151.039a187 187 0 0 1-4.261-.034q-1.663-.035-2.65-.137-.989-.102-1.554-.302a3.2 3.2 0 0 1-.965-.524 2.6 2.6 0 0 1-.747-.973q-.274-.599-.389-1.638-.112-1.041-.111-2.746-.003-2.089.104-3.45.11-1.363.385-2.167.277-.804.774-1.216.498-.414 1.271-.601a7 7 0 0 1 .944-.198q.526-.075 1.373-.114a68 68 0 0 1 2.228-.05q1.383-.012 3.514-.012M108.859-26.055q.014-1.127.037-1.813.025-.687.077-1.065.053-.379.154-.581.103-.204.272-.364.207-.202.744-.338.538-.137 1.539-.218a46 46 0 0 1 2.598-.116q1.595-.036 3.92-.035 1.685 0 2.796.011 1.112.01 1.796.042.685.03 1.088.088.404.057.672.151.704.225.98.779.277.552.265 1.713.005.74-.099 1.182t-.369.683q-.262.242-.736.379a7 7 0 0 1-.548.167 7 7 0 0 1-.729.134q-.463.063-1.333.144-.869.083-2.353.203-1.486.123-3.796.308-1.98.147-3.249.244l-2.015.154q-.744.06-1.141.095a20 20 0 0 0-1.109.13q-1.423.202-2.433.472-1.01.268-1.723.648a5.1 5.1 0 0 0-1.241.915 5.1 5.1 0 0 0-.964 1.292q-.375.72-.583 1.814t-.286 2.795a90 90 0 0 0-.076 4.236q-.003.648.004 1.096.006.448.032.911t.087 1.15h33v-6.355h-25.278q.016-.775.088-1.196.071-.42.253-.669.183-.248.531-.503.151-.123.36-.214.21-.092.667-.17a20 20 0 0 1 1.35-.161q.892-.085 2.407-.193 1.518-.11 3.843-.264l5.654-.37q3.493-.179 5.54-.898 2.047-.717 2.926-2.051.433-.652.699-1.478.266-.824.386-1.976.12-1.149.118-2.778.007-2.246-.246-3.705-.252-1.46-.836-2.366a4.6 4.6 0 0 0-1.574-1.488 6 6 0 0 0-1.132-.54q-.604-.218-1.53-.351a27 27 0 0 0-2.417-.202q-1.492-.068-3.793-.09a564 564 0 0 0-5.655-.022q-3.407-.003-5.795.106-2.388.108-3.976.367-1.59.257-2.601.701-1.009.444-1.659 1.11a4.6 4.6 0 0 0-.852 1.152q-.34.65-.534 1.589-.196.938-.278 2.305a55 55 0 0 0-.08 3.304zM136.333-35.959l5.289 6.157-5.478 6.616h5.91l3.13-4.321h.243l3.049 4.321h6.126l-5.668-6.859 5.128-5.914h-6.126l-2.563 3.403h-.216l-2.401-3.403z"/></g><path fill="url(#a)" d="M13.527 8.647v13.721h-3.129a.65.65 0 0 0-.648.65v5.273a.65.65 0 0 0 .648.649h3.15l.004.125q.044 1.093.125 1.915c.073.734.183 1.37.339 1.901.155.534.373 1.015.657 1.434.274.403.616.787 1.014 1.146q.643.598 1.422 1.003a7.5 7.5 0 0 0 1.803.63c.671.151 1.463.254 2.365.316q1.353.092 3.194.09a50 50 0 0 0 2.37-.056q.581-.028 1.359-.07a.65.65 0 0 0 .614-.648v-4.855a.65.65 0 0 0-.669-.649 197 197 0 0 1-1.533.04l-.398.002c-1.052 0-1.85-.065-2.414-.184-.569-.121-.901-.297-1.09-.478a1.2 1.2 0 0 1-.286-.363c-.06-.12-.124-.32-.168-.63a8 8 0 0 1-.053-.568l-.004-.101h6.548a.65.65 0 0 0 .649-.649v-5.273a.65.65 0 0 0-.649-.65h-6.574V8.647a.65.65 0 0 0-.65-.649h-7.347a.65.65 0 0 0-.649.649m7.347.649v13.722a.65.65 0 0 0 .649.649h6.576v3.975h-6.576a.65.65 0 0 0-.649.662c.012.6.045 1.098.098 1.484.055.389.146.742.294 1.037.143.281.335.529.565.732.412.397 1.011.646 1.701.793s1.593.213 2.683.212c.14 0 .28 0 .41-.003q.197-.001.543-.01l.348-.011v3.571l-.111.005-.627.032q-.572.028-1.108.042-.535.014-1.2.014a45 45 0 0 1-3.104-.088q-1.29-.088-2.171-.286a6 6 0 0 1-1.489-.518 5 5 0 0 1-1.141-.805 5.2 5.2 0 0 1-.819-.919 3.8 3.8 0 0 1-.486-1.069c-.125-.43-.224-.981-.292-1.665a37 37 0 0 1-.144-2.579.65.65 0 0 0-.648-.631h-3.129v-3.975h3.129a.65.65 0 0 0 .649-.649V9.296z" transform="scale(1 -1)"/><path fill="url(#b)" d="M37.908 7.682c-1.322.124-2.449.324-3.369.611-.917.285-1.711.671-2.362 1.165a5.8 5.8 0 0 0-1.676 1.926c-.413.764-.688 1.717-.846 2.836-.159 1.114-.233 2.513-.229 4.187q-.004 1.985.126 3.437c.088.969.236 1.815.452 2.528.218.715.521 1.345.916 1.878.39.525.875.983 1.441 1.373a7.6 7.6 0 0 0 1.734.909q.966.364 2.243.571c.849.14 1.859.238 3.022.297a82 82 0 0 0 4.124.086 87 87 0 0 0 4.141-.08q1.737-.082 2.977-.282 1.243-.198 2.168-.56a6.9 6.9 0 0 0 1.644-.91 5.9 5.9 0 0 0 1.711-1.957c.428-.785.725-1.741.905-2.85.18-1.104.266-2.436.263-3.983.001-.143-.002-.408-.006-.786q-.007-.581-.037-1.236a.65.65 0 0 0-.648-.619H38.085l.004-.211q.02-.375.057-.648c.049-.361.127-.603.209-.753q.128-.238.367-.416c.266-.199.743-.388 1.509-.513.758-.126 1.782-.19 3.087-.189a38 38 0 0 1 2.804.076c.714.054 1.222.15 1.553.27.325.116.495.257.584.388.117.17.216.422.271.787a.65.65 0 0 0 .641.555h7.306a.65.65 0 0 0 .647-.707c-.126-1.411-.441-2.622-.974-3.605-.55-1.015-1.402-1.795-2.521-2.345-1.104-.545-2.553-.907-4.315-1.114q-2.64-.31-6.578-.298-2.842-.004-4.828.182m11.254 1.404c1.686.199 2.973.537 3.895.99.907.448 1.546 1.049 1.952 1.8.317.587.556 1.31.704 2.181l.028.213h-6.063l-.039-.158a2.7 2.7 0 0 0-.31-.62c-.287-.418-.717-.697-1.215-.875-.492-.178-1.134-.284-1.895-.341a38 38 0 0 0-2.902-.082c-1.336-.001-2.44.065-3.295.206-.848.14-1.565.373-2.072.752a2.6 2.6 0 0 0-.735.836c-.183.341-.294.751-.355 1.202-.06.446-.088 1.011-.085 1.683a.65.65 0 0 0 .648.648h18.549l.018.571c.005.38.005.633.005.77.003 1.508-.08 2.764-.245 3.776-.164 1.01-.424 1.816-.764 2.437a4.6 4.6 0 0 1-1.344 1.536 5.6 5.6 0 0 1-1.347.746c-.504.198-1.134.363-1.898.485-.764.124-1.705.213-2.834.267q-1.689.081-4.08.078a79 79 0 0 1-4.057-.084q-1.697-.087-2.88-.281c-.788-.128-1.449-.299-1.993-.504a6.5 6.5 0 0 1-1.45-.759 4.8 4.8 0 0 1-1.141-1.084c-.293-.393-.535-.882-.717-1.481q-.276-.903-.4-2.267a37 37 0 0 1-.121-3.321c-.004-1.643.068-2.974.215-4.003.145-1.024.386-1.817.702-2.402a4.54 4.54 0 0 1 1.313-1.504c.513-.388 1.164-.713 1.971-.964q1.203-.38 3.104-.559t4.708-.175q3.896-.011 6.425.287M36.775 20.904c.012.976.206 1.824.663 2.464.484.677 1.286 1.069 2.258 1.27.956.199 2.27.286 3.913.277 1.455.002 2.628-.077 3.497-.246.641-.127 1.212-.321 1.652-.624l.39-.339.248-.286q.122-.168.21-.357c.12-.258.188-.567.225-.896.037-.321.06-.743.071-1.257a.65.65 0 0 0-.648-.663H37.423a.65.65 0 0 0-.648.657m11.767 1.117a1.7 1.7 0 0 1-.114.498.9.9 0 0 1-.204.28l-.031.031c-.179.197-.576.415-1.337.564-.747.147-1.822.224-3.249.222-1.618.009-2.824-.078-3.647-.25-.811-.168-1.25-.451-1.467-.753a2 2 0 0 1-.299-.676l-.072-.392H48.58z" transform="scale(1 -1)"/><path fill="url(#c)" d="M72.192 7.626a88 88 0 0 0-4.244.163c-1.158.08-2.138.193-2.932.342-.793.15-1.481.345-2.057.595a7 7 0 0 0-1.529.901 5.8 5.8 0 0 0-1.503 1.704c-.4.683-.699 1.529-.914 2.515q-.321 1.487-.449 3.64-.132 2.153-.126 5.201a77 77 0 0 0 .131 4.975c.092 1.387.242 2.569.46 3.541.219.971.518 1.805.916 2.483a5.65 5.65 0 0 0 1.486 1.686c.452.356.967.656 1.532.902q.868.37 2.06.593 1.192.224 2.925.342 1.73.12 4.217.164 2.484.047 5.935.044a310 310 0 0 0 5.951-.044q2.49-.044 4.218-.164 1.731-.117 2.92-.343 1.188-.22 2.051-.593a7 7 0 0 0 1.529-.901 5.6 5.6 0 0 0 1.485-1.683c.398-.677.698-1.515.917-2.492.217-.979.368-2.178.459-3.589q.135-2.116.132-5.088.003-2.988-.132-5.111-.134-2.126-.459-3.602c-.218-.979-.519-1.819-.917-2.496a5.7 5.7 0 0 0-1.485-1.685 7 7 0 0 0-1.533-.9c-.575-.25-1.264-.445-2.053-.595q-1.19-.223-2.914-.342a86 86 0 0 0-4.192-.163q-2.47-.045-5.894-.045-3.489 0-5.991.045m11.861 1.297q2.45.046 4.127.162 1.676.117 2.762.323c.728.137 1.317.308 1.779.509a5.7 5.7 0 0 1 1.26.74 4.4 4.4 0 0 1 1.155 1.31c.308.528.569 1.229.768 2.122.198.894.343 2.025.432 3.402q.131 2.068.128 5.03.003 2.944-.128 5.005-.133 2.053-.432 3.388c-.198.892-.46 1.591-.768 2.119a4.4 4.4 0 0 1-1.155 1.308 5.7 5.7 0 0 1-1.258.742c-.459.199-1.047.371-1.775.509q-1.085.205-2.768.322a84 84 0 0 1-4.153.161 300 300 0 0 1-5.927.043q-3.444.004-5.912-.043a84 84 0 0 1-4.151-.161c-1.125-.077-2.047-.186-2.774-.323-.731-.137-1.323-.309-1.785-.509a5.7 5.7 0 0 1-1.259-.741 4.4 4.4 0 0 1-1.156-1.312c-.309-.529-.569-1.226-.768-2.111q-.298-1.324-.431-3.34c-.088-1.35-.131-2.978-.128-4.892q-.006-3.023.122-5.121.127-2.093.422-3.443c.196-.9.456-1.605.765-2.135a4.5 4.5 0 0 1 1.175-1.331 5.7 5.7 0 0 1 1.256-.739c.46-.201 1.049-.372 1.78-.509q1.089-.206 2.781-.323a87 87 0 0 1 4.178-.162q2.487-.044 5.969-.043 3.417-.001 5.869.043m-10.144 5.881c-1.116.023-2.02.069-2.704.141-.68.07-1.256.177-1.702.335a3.8 3.8 0 0 0-1.154.629 3.2 3.2 0 0 0-.932 1.21c-.225.487-.364 1.11-.444 1.837-.079.728-.116 1.67-.114 2.816q-.005 2.103.105 3.503c.074.934.209 1.717.418 2.325.211.615.525 1.135.974 1.506q.318.264.703.443l.826.287 1.009.212q.57.079 1.434.119c.575.025 1.328.042 2.251.05q1.389.013 3.521.013 2.333 0 3.927-.023a48 48 0 0 0 2.635-.101c.689-.05 1.264-.127 1.709-.236.443-.108.838-.265 1.154-.489q.219-.156.403-.346l.319-.388.021-.029.385-.628q.174-.369.29-.797c.156-.572.256-1.3.314-2.169q.085-1.304.084-3.293c.001-1.12-.036-2.05-.115-2.778-.079-.727-.22-1.352-.442-1.842a3.1 3.1 0 0 0-.94-1.207 3.8 3.8 0 0 0-1.136-.608c-.444-.154-1.014-.261-1.69-.336a34 34 0 0 0-2.668-.151 170 170 0 0 0-4.166-.04q-2.602-.003-4.275.035m8.409 1.302q1.618.042 2.559.145c.633.069 1.095.164 1.405.271.322.113.569.248.765.405.227.173.412.403.555.72.143.315.262.787.334 1.447.073.661.108 1.537.107 2.637a49 49 0 0 1-.081 3.207c-.054.828-.149 1.461-.271 1.913-.124.454-.285.776-.46.994l-.029.038a1.7 1.7 0 0 1-.429.44c-.137.098-.363.201-.71.286-.346.085-.84.155-1.496.204a48 48 0 0 1-2.56.097q-1.582.022-3.907.022-2.13 0-3.508-.012a66 66 0 0 1-2.206-.05 15 15 0 0 1-1.31-.108 6 6 0 0 1-.852-.178l-.03-.008c-.442-.108-.771-.271-1.01-.47-.216-.179-.417-.47-.575-.927-.159-.463-.28-1.125-.351-2.007q-.105-1.324-.101-3.399c-.002-1.127.034-2.016.106-2.676.074-.659.191-1.128.332-1.437.145-.315.333-.554.565-.738.203-.165.456-.306.774-.418.308-.109.768-.202 1.404-.269a34 34 0 0 1 2.599-.134q1.653-.036 4.246-.033 2.515-.002 4.135.038" transform="scale(1 -1)"/><path fill="url(#d)" d="M100.492 8.589a36 36 0 0 0-.09 1.171q-.027.478-.033.94-.008.455-.005 1.105a91 91 0 0 0 .077 4.266c.054 1.149.152 2.115.298 2.886s.357 1.44.644 1.993a5.7 5.7 0 0 0 1.083 1.452c.397.403.866.747 1.394 1.028.529.282 1.152.514 1.86.701q1.058.283 2.507.488.252.037.491.067.247.03.651.067.405.037 1.15.096l2.017.154 3.248.244q2.31.186 3.792.307 1.483.121 2.347.203.863.08 1.304.142.44.061.655.118.237.062.499.152l.031.01c.255.074.399.161.479.234.057.053.127.152.174.353.053.224.085.56.082 1.035.008.751-.082 1.195-.195 1.422-.091.182-.26.343-.606.453a3 3 0 0 1-.558.124c-.239.035-.577.063-1.025.082q-.669.031-1.774.042-1.107.011-2.789.011-2.321 0-3.906-.035a45 45 0 0 1-2.56-.115c-.655-.052-1.126-.122-1.431-.2-.316-.079-.43-.154-.456-.179a.6.6 0 0 1-.14-.184 1.4 1.4 0 0 1-.091-.38 10 10 0 0 1-.071-.998 80 80 0 0 1-.038-1.797.65.65 0 0 0-.648-.642h-8.136a.65.65 0 0 0-.649.648q-.004 1.95.08 3.344c.057.929.151 1.732.291 2.399s.335 1.256.596 1.757q.385.739.966 1.309c.497.509 1.123.923 1.859 1.246.741.326 1.665.572 2.757.748 1.091.177 2.444.301 4.05.375q2.409.108 5.825.106a598 598 0 0 0 5.661-.022q2.308-.024 3.816-.091 1.508-.07 2.48-.208.966-.136 1.658-.382.665-.24 1.245-.594a5.3 5.3 0 0 0 1.786-1.694c.451-.699.751-1.577.929-2.607.178-1.023.261-2.3.257-3.815q.001-1.65-.123-2.846c-.083-.799-.218-1.504-.413-2.107a6.5 6.5 0 0 0-.775-1.638c-.687-1.042-1.803-1.796-3.253-2.304-1.447-.509-3.363-.814-5.717-.934q-3.32-.218-5.648-.371a536 536 0 0 1-3.839-.263 108 108 0 0 1-2.394-.191 19 19 0 0 1-1.302-.156 2.6 2.6 0 0 1-.516-.124.9.9 0 0 1-.208-.121l-.028-.022a1.9 1.9 0 0 1-.391-.364c-.043-.058-.101-.176-.137-.393l-.049-.437h24.6c.358 0 .65-.292.65-.65V8.648a.65.65 0 0 0-.65-.649h-33a.65.65 0 0 0-.645.59m32.997.708v5.057h-24.63a.65.65 0 0 0-.648.662c.01.528.041.964.096 1.291.059.345.171.672.37.946q.13.175.3.335l.37.303.484.289c.215.094.503.161.818.214.329.057.799.112 1.397.168q.905.085 2.423.195 1.52.11 3.846.263l5.659.37c2.305.119 4.081.413 5.363.863 1.278.448 2.114 1.061 2.6 1.798q.38.57.622 1.317.24.742.358 1.844c.077.738.115 1.639.115 2.713.004 1.477-.077 2.67-.238 3.593-.157.917-.413 1.616-.74 2.125-.331.513-.78.94-1.362 1.283a5.5 5.5 0 0 1-1.02.486c-.346.126-.809.233-1.402.319q-.88.127-2.354.196-1.475.068-3.77.09-2.297.023-5.649.021-3.398.004-5.764-.105-2.367-.107-3.903-.359c-1.029-.166-1.836-.387-2.443-.654-.61-.268-1.09-.595-1.463-.974a4 4 0 0 1-.734-.995c-.191-.367-.353-.837-.474-1.421q-.185-.874-.267-2.212a43 43 0 0 1-.061-1.486l-.012-1.129h6.845l.006.381q.009.457.021.806c.017.465.043.846.083 1.131.038.282.103.556.217.783.102.205.238.387.423.561.272.247.643.385 1.013.48.41.104.966.18 1.645.234q1.028.083 2.636.119 1.606.035 3.935.035 1.688 0 2.802-.012a57 57 0 0 0 1.819-.041c.465-.021.852-.051 1.151-.095.293-.041.561-.099.785-.177.593-.191 1.078-.549 1.355-1.104.255-.511.341-1.21.333-2.006.003-.511-.031-.963-.116-1.329-.091-.388-.267-.744-.562-1.013a2.1 2.1 0 0 0-.457-.315l-.534-.208-.57-.173a7 7 0 0 0-.802-.148 32 32 0 0 0-1.36-.147c-.582-.057-1.372-.124-2.362-.205l-3.799-.307-3.249-.244-2.014-.154q-.742-.06-1.133-.094a20 20 0 0 1-1.074-.127 20 20 0 0 1-2.36-.457c-.637-.169-1.162-.369-1.584-.593a4.5 4.5 0 0 1-1.089-.803 4.4 4.4 0 0 1-.847-1.133c-.212-.405-.39-.945-.52-1.633s-.223-1.588-.276-2.705a88 88 0 0 1-.075-4.206q-.002-.646.003-1.086.007-.435.031-.883.013-.225.035-.507l.003-.031z" transform="scale(1 -1)"/><path fill="url(#e)" d="m135.644 23.599 5.129 6.194-4.932 5.742a.65.65 0 0 0 .492 1.072h6.423a.65.65 0 0 0 .528-.275l1.993-2.825 2.14 2.841a.65.65 0 0 0 .519.259h6.126a.65.65 0 0 0 .49-1.075l-4.768-5.498 5.317-6.436a.65.65 0 0 0-.499-1.062h-6.126a.65.65 0 0 0-.531.275l-2.645 3.748-2.721-3.755a.65.65 0 0 0-.525-.268h-5.91a.65.65 0 0 0-.5 1.063m6.078.236 2.936 4.052a.65.65 0 0 0 .526.268h.243c.21 0 .408-.103.529-.275l2.855-4.045h4.411l-4.788 5.795a.65.65 0 0 0 .011.839l4.195 4.84h-4.381l-2.37-3.145a.64.64 0 0 0-.516-.258h-.216a.65.65 0 0 0-.53.274l-2.208 3.129h-4.674l4.369-5.086a.65.65 0 0 0 .007-.837l-4.597-5.551z" transform="scale(1 -1)"/></g></svg>